<svg xmlns="http://www.w3.org/2000/svg" width="60" height="60" viewBox="0 0 60 60">
  <g id="Group_9554" data-name="Group 9554" transform="translate(-129.614 -159)">
    <circle id="Ellipse_151" data-name="Ellipse 151" cx="30" cy="30" r="30" transform="translate(129.614 159)" fill="#333d4e"/>
    <path id="warning_FILL0_wght200_GRAD0_opsz24_1_" data-name="warning_FILL0_wght200_GRAD0_opsz24 (1)" d="M109.23-772.474,125.177-800l15.947,27.526Zm2.958-1.72h25.978l-12.989-22.365Zm12.989-2.382a1.024,1.024,0,0,0,.754-.3,1.024,1.024,0,0,0,.3-.754,1.024,1.024,0,0,0-.3-.754,1.024,1.024,0,0,0-.754-.3,1.024,1.024,0,0,0-.754.3,1.024,1.024,0,0,0-.3.754,1.024,1.024,0,0,0,.3.754A1.024,1.024,0,0,0,125.177-776.576Zm-.86-3.838h1.72v-8.6h-1.72ZM125.177-785.377Z" transform="translate(34.437 972.75)" fill="#e4e6e9"/>
  </g>
</svg>
