<svg xmlns="http://www.w3.org/2000/svg" xmlns:xlink="http://www.w3.org/1999/xlink" width="64" height="64" viewBox="0 0 64 64">
  <defs>
    <clipPath id="clip-path">
      <rect id="Rectangle_5100" data-name="Rectangle 5100" width="18.178" height="27.244" fill="#848484"/>
    </clipPath>
  </defs>
  <g id="Group_8380" data-name="Group 8380" transform="translate(-742 -323)">
    <circle id="Ellipse_166" data-name="Ellipse 166" cx="32" cy="32" r="32" transform="translate(742 323)" fill="#e1e1e1"/>
    <g id="Group_8338" data-name="Group 8338" transform="translate(764.911 341.378)">
      <g id="Group_8339" data-name="Group 8339" clip-path="url(#clip-path)">
        <path id="Path_20516" data-name="Path 20516" d="M16.169,0a2.562,2.562,0,0,1,1.369.7,2.375,2.375,0,0,1,.639,1.7q0,11.226,0,22.452a2.279,2.279,0,0,1-2.419,2.392q-6.665,0-13.33,0A2.258,2.258,0,0,1,.085,25.508a2.771,2.771,0,0,1-.078-.71Q0,13.626,0,2.453A2.318,2.318,0,0,1,1.968.029C1.984.027,2,.011,2.013,0ZM2.293,21.547h13.59V2.288H2.293Zm6.775,3.418v.006c.522,0,1.045,0,1.567,0A1.177,1.177,0,0,0,11,24.922a.536.536,0,0,0,.341-.592.545.545,0,0,0-.57-.486c-1.124-.008-2.249,0-3.373,0a.459.459,0,0,0-.079.009.566.566,0,0,0-.493.567.54.54,0,0,0,.542.543c.566.014,1.133,0,1.7,0" transform="translate(0 -0.001)" fill="#848484"/>
        <path id="Path_20517" data-name="Path 20517" d="M104.7,358.889c-.567,0-1.133.01-1.7,0a.54.54,0,0,1-.542-.543.566.566,0,0,1,.493-.567.459.459,0,0,1,.079-.009c1.124,0,2.249-.006,3.373,0a.545.545,0,0,1,.57.486.536.536,0,0,1-.341.592,1.177,1.177,0,0,1-.365.046c-.522,0-1.045,0-1.567,0v-.006" transform="translate(-95.629 -333.925)" fill="#848484"/>
        <path id="Path_20518" data-name="Path 20518" d="M53.414,106.742c-.514,0-1.028,0-1.542,0s-.718-.2-.72-.7q-.007-1.568,0-3.137c0-.482.222-.7.7-.7q1.569,0,3.137,0c.483,0,.7.212.707.692q.008,1.581,0,3.163c0,.469-.218.676-.688.68-.532,0-1.063,0-1.6,0" transform="translate(-47.74 -95.394)" fill="#848484"/>
        <path id="Path_20519" data-name="Path 20519" d="M155.637,106.734c-.523,0-1.046,0-1.569,0-.471,0-.688-.21-.69-.678q-.01-1.595,0-3.19a.594.594,0,0,1,.677-.667q1.6-.005,3.19,0a.594.594,0,0,1,.677.667q.011,1.595,0,3.19c0,.468-.219.674-.691.677-.532,0-1.063,0-1.6,0" transform="translate(-143.153 -95.387)" fill="#848484"/>
        <path id="Path_20520" data-name="Path 20520" d="M53.412,208.96c-.514,0-1.028,0-1.542,0s-.717-.2-.72-.7q-.007-1.568,0-3.136c0-.481.223-.695.7-.7q1.568,0,3.137,0c.482,0,.7.213.706.693q.008,1.582,0,3.163c0,.469-.219.675-.689.679-.532,0-1.063,0-1.6,0" transform="translate(-47.74 -190.802)" fill="#848484"/>
        <path id="Path_20521" data-name="Path 20521" d="M155.643,208.956c-.523,0-1.046,0-1.569,0-.475,0-.693-.206-.7-.672q-.011-1.595,0-3.19c0-.462.229-.672.7-.673q1.582,0,3.164,0a.594.594,0,0,1,.682.662q.012,1.608,0,3.216c0,.45-.225.653-.684.657-.532,0-1.063,0-1.6,0" transform="translate(-143.154 -190.798)" fill="#848484"/>
        <path id="Path_20522" data-name="Path 20522" d="M120.672,52.324c-.2,0-.408.014-.61,0a.527.527,0,0,1-.493-.5.5.5,0,0,1,.428-.579,8.875,8.875,0,0,1,1.375,0,.506.506,0,0,1,.443.569.533.533,0,0,1-.506.518c-.211.017-.424,0-.637,0h0" transform="translate(-111.6 -47.798)" fill="#848484"/>
        <path id="Path_20523" data-name="Path 20523" d="M205.272,52.3a.558.558,0,0,1-.572-.539.562.562,0,1,1,1.123-.023.563.563,0,0,1-.551.562" transform="translate(-191.061 -47.765)" fill="#848484"/>
      </g>
    </g>
  </g>
</svg>
