<svg xmlns="http://www.w3.org/2000/svg" width="24" height="24" viewBox="0 0 24 24">
  <g id="Group_8122" data-name="Group 8122" transform="translate(-30 -362)">
    <rect id="Rectangle_4827" data-name="Rectangle 4827" width="24" height="24" transform="translate(30 362)" fill="#fff" opacity="0"/>
    <path id="smartphone_FILL0_wght400_GRAD0_opsz24" d="M201.654-901.8a1.593,1.593,0,0,1-1.168-.486,1.593,1.593,0,0,1-.486-1.168v-14.889a1.593,1.593,0,0,1,.486-1.168,1.593,1.593,0,0,1,1.168-.486h8.272a1.593,1.593,0,0,1,1.168.486,1.593,1.593,0,0,1,.486,1.168v14.889a1.593,1.593,0,0,1-.486,1.168,1.593,1.593,0,0,1-1.168.486Zm0-2.482v.827h8.272v-.827Zm0-1.654h8.272v-9.926h-8.272Zm0-11.581h8.272v-.827h-8.272Zm0,0v0Zm0,13.235v0Z" transform="translate(-164 1284.901)" fill="#9d9d9d"/>
  </g>
</svg>
