<svg xmlns="http://www.w3.org/2000/svg" width="32" height="32" viewBox="0 0 32 32">
  <g id="Group_7791" data-name="Group 7791" transform="translate(-1296 -481)">
    <circle id="Ellipse_62" data-name="Ellipse 62" cx="16" cy="16" r="16" transform="translate(1296 481)" fill="#f8f8f8"/>
    <path id="Path_14370" data-name="Path 14370" d="M1272.83,511.93a.892.892,0,0,0-.28-.615l-5.2-5.088a.756.756,0,0,0-.55-.227.788.788,0,0,0-.8.8.815.815,0,0,0,.24.568l4.68,4.566-4.68,4.566a.8.8,0,0,0-.24.568.788.788,0,0,0,.8.8.773.773,0,0,0,.55-.227l5.2-5.095A.791.791,0,0,0,1272.83,511.93Z" transform="translate(43 -15)" fill="#999fa5"/>
  </g>
</svg>
