<svg id="Group_7867" data-name="Group 7867" xmlns="http://www.w3.org/2000/svg" xmlns:xlink="http://www.w3.org/1999/xlink" width="94" height="88" viewBox="0 0 94 88">
  <defs>
    <clipPath id="clip-path">
      <rect id="Rectangle_4944" data-name="Rectangle 4944" width="94" height="88" fill="#185adb"/>
    </clipPath>
  </defs>
  <g id="Group_7866" data-name="Group 7866" clip-path="url(#clip-path)">
    <path id="Path_19166" data-name="Path 19166" d="M211.492,8.954c1.308,0,2.623.01,3.937,0a4.485,4.485,0,0,0,4.652-4.579c.013-.993,0-1.986,0-3.033a21.893,21.893,0,0,1,15.049-.013c0,1.058-.013,2.082,0,3.1a4.484,4.484,0,0,0,4.522,4.518c1.159.02,2.321.031,3.479-.007.554-.018.828.169.842.713.061,2.265.124,4.53.168,6.795,0,.151-.124.412-.237.441-1.282.323-2.4,1.1-3.93.482a32.586,32.586,0,0,0-25.157.127,6.476,6.476,0,0,1-3.638-.683.517.517,0,0,1-.119-.332q.126-3.624.272-7.248c0-.055.057-.108.155-.282" transform="translate(-158.039 0)" fill="#185adb"/>
    <path id="Path_19167" data-name="Path 19167" d="M40.408,205.013a21.784,21.784,0,0,1,14.545-.166.971.971,0,0,1,.481.724c.06.9,0,1.8.031,2.7a4.475,4.475,0,0,0,4.395,4.349c1.4.036,2.811.006,4.335.006a20.722,20.722,0,0,1,.273,2.149c.041,1.676,0,3.355.03,5.031.011.521-.17.728-.652.938a5.423,5.423,0,0,1-4.37-.015,32.34,32.34,0,0,0-24.168.4c-1.451.586-2.512-.318-3.741-.6-.085-.019-.175-.254-.173-.387.042-2.232.1-4.464.149-6.7.014-.692.365-.866,1.023-.834,1.094.053,2.192.028,3.288.01a4.483,4.483,0,0,0,4.552-4.481c.019-1.023,0-2.046,0-3.133" transform="translate(-23.506 -152.941)" fill="#185adb"/>
    <path id="Path_19168" data-name="Path 19168" d="M256.149,115.074v12.572a48.051,48.051,0,0,1-20.982.008V115.081a47.627,47.627,0,0,1,20.982-.007" transform="translate(-176.086 -85.533)" fill="#185adb"/>
    <path id="Path_19169" data-name="Path 19169" d="M216.833,186.313a23.955,23.955,0,0,0,.245,2.545,5.853,5.853,0,0,0,5.672,4.7c5.141.043,10.282.051,15.422,0a5.935,5.935,0,0,0,5.82-5.811c.012-.429,0-.859,0-1.495.734.577,1.357,1.02,1.914,1.535a.973.973,0,0,1,.152.755c-.365,2.269-.689,4.548-1.162,6.8a5.358,5.358,0,0,1-5.133,4.186q-9.309.071-18.62,0a5.381,5.381,0,0,1-5.155-4.276c-.442-2.191-.791-4.4-1.114-6.614a1.528,1.528,0,0,1,.423-1.08,13.21,13.21,0,0,1,1.533-1.237" transform="translate(-160.888 -139.853)" fill="#185adb"/>
    <path id="Path_19170" data-name="Path 19170" d="M76.509,318.747v7.7H55.526v-7.691a47.568,47.568,0,0,1,20.983-.008" transform="translate(-41.576 -238.469)" fill="#185adb"/>
    <path id="Path_19171" data-name="Path 19171" d="M51.079,284.25l-1.046-6.216a30.263,30.263,0,0,1,23.714-.008L72.7,284.237a51.386,51.386,0,0,0-21.625.013" transform="translate(-37.463 -206.954)" fill="#185adb"/>
    <path id="Path_19172" data-name="Path 19172" d="M229.735,74.447a29.735,29.735,0,0,1,23.7.008l-.985,5.873c-3.672-.3-7.274-.819-10.876-.82-3.578,0-7.156.521-10.838.822l-1-5.884" transform="translate(-172.018 -54.056)" fill="#185adb"/>
    <path id="Path_19173" data-name="Path 19173" d="M234.986,181.387a52.2,52.2,0,0,0,21.015,0,29.276,29.276,0,0,1-.02,3,2.87,2.87,0,0,1-2.816,2.527q-7.651.049-15.3,0A2.9,2.9,0,0,1,235,184.331c-.086-.949-.016-1.912-.016-2.944" transform="translate(-175.93 -136.203)" fill="#185adb"/>
    <path id="Path_19174" data-name="Path 19174" d="M133.434,140.964v2.759c-8.5.635-18.184-7.176-17.966-17.7h2.853a15.314,15.314,0,0,0,15.113,14.943" transform="translate(-86.456 -94.629)" fill="#49a647"/>
    <path id="Path_19175" data-name="Path 19175" d="M211.154,105.47c-.434-8.387-.078-16.515-.236-24.642,1.564.107,1.688.23,1.91,1.607.331,2.054.684,4.1,1.027,6.156a4.024,4.024,0,0,1,.092.644q.01,6.76,0,13.52a.953.953,0,0,1-.227.658c-.749.644-1.539,1.243-2.565,2.057" transform="translate(-157.929 -60.693)" fill="#185adb"/>
    <path id="Path_19176" data-name="Path 19176" d="M333.7,80.156c-.163,8.119.205,16.246-.243,24.617-1.016-.8-1.811-1.395-2.555-2.044a1.089,1.089,0,0,1-.23-.747c-.013-4.412-.158-8.831.047-13.234a49.567,49.567,0,0,1,1.283-7.8c.089-.422.936-.687,1.433-1.024l.266.231" transform="translate(-247.548 -60.015)" fill="#185adb"/>
    <path id="Path_19177" data-name="Path 19177" d="M151.3,134.958v2.83c-5.3.522-12.056-4.5-11.948-11.742h2.927a9.153,9.153,0,0,0,2.683,6.253,9.272,9.272,0,0,0,6.338,2.659" transform="translate(-104.338 -94.647)" fill="#49a647"/>
    <path id="Path_19178" data-name="Path 19178" d="M31.615,284.345c1.543.25,1.476.265,1.884,2.064a56.5,56.5,0,0,1,1,15.069H31.615Z" transform="translate(-23.672 -213.513)" fill="#185adb"/>
    <path id="Path_19179" data-name="Path 19179" d="M154.06,300.491h-2.966c0-2.234.04-4.429-.009-6.622-.074-3.291.782-6.454,1.341-9.653.076-.434.942-.732,1.635-1.232Z" transform="translate(-113.124 -212.491)" fill="#185adb"/>
    <path id="Path_19180" data-name="Path 19180" d="M163.3,125.925h2.906a3.208,3.208,0,0,0,3.017,3v2.848c-2.634.309-6.021-2.283-5.923-5.843" transform="translate(-122.276 -94.556)" fill="#49a647"/>
    <path id="Path_19181" data-name="Path 19181" d="M180.389,71.327l-.731-2.875,4.867-1.218c0,.962.024,1.845-.021,2.724-.008.164-.268.405-.455.456-1.171.319-2.355.593-3.66.913" transform="translate(-134.522 -50.486)" fill="#185adb"/>
    <path id="Path_19182" data-name="Path 19182" d="M354.756,67.192l4.87,1.216-.72,2.869c-1.313-.316-2.579-.6-3.83-.944-.148-.04-.3-.371-.3-.573-.035-.8-.014-1.609-.014-2.568" transform="translate(-265.626 -50.454)" fill="#185adb"/>
    <path id="Path_19183" data-name="Path 19183" d="M.718,275,0,272.126l4.865-1.211c0,.944.023,1.8-.019,2.662a.691.691,0,0,1-.4.5c-1.2.328-2.408.608-3.725.931" transform="translate(0 -203.429)" fill="#185adb"/>
    <path id="Path_19184" data-name="Path 19184" d="M175.083,270.876l4.869,1.209-.728,2.875c-1.3-.313-2.509-.589-3.707-.913a.691.691,0,0,1-.415-.488c-.043-.862-.019-1.727-.019-2.684" transform="translate(-131.092 -203.4)" fill="#185adb"/>
    <path id="Path_19185" data-name="Path 19185" d="M322.955,14.184c-1.023,0-1.889.049-2.747-.014a1.4,1.4,0,0,1-1.374-1.389c-.047-.552-.009-1.112-.009-1.828a11.146,11.146,0,0,1,4.13,3.231" transform="translate(-238.716 -8.225)" fill="#185adb"/>
    <path id="Path_19186" data-name="Path 19186" d="M143.1,217.233c-.834,0-1.671.037-2.5-.01a1.42,1.42,0,0,1-1.45-1.416c-.047-.55-.009-1.106-.009-2.017l4.14,3.1-.179.343" transform="translate(-104.175 -160.534)" fill="#185adb"/>
    <path id="Path_19187" data-name="Path 19187" d="M218.533,13.551l3.961-2.99c.628,2.983-.364,3.762-3.8,3.247l-.161-.258" transform="translate(-163.631 -7.93)" fill="#185adb"/>
    <path id="Path_19188" data-name="Path 19188" d="M38.825,217.241l3.956-3c.633,3.476-.5,3.519-3.779,3.267l-.177-.265" transform="translate(-29.071 -160.871)" fill="#185adb"/>
  </g>
</svg>
