<svg xmlns="http://www.w3.org/2000/svg" width="18" height="18" viewBox="0 0 18 18">
  <path id="check_circle_FILL1_wght400_GRAD0_opsz48_1_" data-name="check_circle_FILL1_wght400_GRAD0_opsz48 (1)" d="M87.673,189.1l6.368-6.367-1.035-1.012-5.332,5.332-2.7-2.7L83.96,185.36ZM89,194a8.708,8.708,0,0,1-3.488-.709,9.068,9.068,0,0,1-4.8-4.8,8.99,8.99,0,0,1,0-7,8.994,8.994,0,0,1,1.935-2.858,9.226,9.226,0,0,1,2.869-1.924,8.99,8.99,0,0,1,7,0,8.986,8.986,0,0,1,4.781,4.781,8.99,8.99,0,0,1,0,7,9.225,9.225,0,0,1-1.924,2.869,8.993,8.993,0,0,1-2.857,1.935A8.763,8.763,0,0,1,89,194Z" transform="translate(-80 -176)" fill="#f1f1f1"/>
</svg>
