<svg xmlns="http://www.w3.org/2000/svg" width="18" height="18" viewBox="0 0 18 18">
  <path id="cancel_FILL1_wght400_GRAD0_opsz48" d="M85.625-866.68,89-870.055l3.375,3.375.945-.945L89.945-871l3.375-3.375-.945-.945L89-871.945l-3.375-3.375-.945.945L88.055-871l-3.375,3.375ZM89-862a8.71,8.71,0,0,1-3.488-.709,9.132,9.132,0,0,1-2.869-1.935,9.128,9.128,0,0,1-1.935-2.869A8.708,8.708,0,0,1,80-871a8.763,8.763,0,0,1,.709-3.51,8.993,8.993,0,0,1,1.935-2.858,9.225,9.225,0,0,1,2.869-1.924A8.708,8.708,0,0,1,89-880a8.763,8.763,0,0,1,3.51.709,9.088,9.088,0,0,1,2.857,1.924,9.088,9.088,0,0,1,1.924,2.858A8.763,8.763,0,0,1,98-871a8.709,8.709,0,0,1-.709,3.488,9.225,9.225,0,0,1-1.924,2.869,9,9,0,0,1-2.857,1.935A8.765,8.765,0,0,1,89-862Z" transform="translate(-80 880)" fill="#f1f1f1"/>
</svg>
