<svg xmlns="http://www.w3.org/2000/svg" width="60" height="60" viewBox="0 0 60 60">
  <g id="Group_9243" data-name="Group 9243" transform="translate(-129.614 -159)">
    <circle id="Ellipse_151" data-name="Ellipse 151" cx="30" cy="30" r="30" transform="translate(129.614 159)" fill="#333d4e"/>
    <g id="layer1" transform="translate(143.614 -112.592)">
      <g id="Group_9247" data-name="Group 9247" transform="translate(0 296.235)">
        <path id="path28902" d="M0,291.311v1.022H.511a3.566,3.566,0,0,1,2.418.947l4.283,3.952a4.878,4.878,0,0,0,3.073,1.286l4.007.288H14.3a2.689,2.689,0,0,1,2.568,2.692v3.053h1.022V301.5a3.723,3.723,0,0,0-3.54-3.712l-4.009-.287h-.012a3.845,3.845,0,0,1-2.426-1.017l-4.285-3.954a4.587,4.587,0,0,0-3.111-1.216Z" transform="translate(0 -291.311)" fill="#e4e6e9" fill-rule="evenodd"/>
        <path id="path28904" d="M0,291.839v1.022H.661a.506.506,0,0,1,.359.148l2.9,2.9H0v1.023H5.155a.511.511,0,0,0,.361-.873l-3.773-3.776a1.531,1.531,0,0,0-1.082-.447Z" transform="translate(0 -289.799)" fill="#e4e6e9" fill-rule="evenodd"/>
        <path id="path28906" d="M4.727,294.607a.511.511,0,1,0,0,1.022H6.76a.507.507,0,0,1,0,1.014H4.22a.511.511,0,0,0,0,1.023H6.76A1.471,1.471,0,0,0,8.137,296.5a.511.511,0,0,0,.152-.362,1.537,1.537,0,0,0-1.529-1.53Z" transform="translate(10.623 -281.871)" fill="#e4e6e9" fill-rule="evenodd"/>
      </g>
      <path id="path28908" d="M5.582,293.832a4.077,4.077,0,1,0,4.077,4.078A4.085,4.085,0,0,0,5.582,293.832Zm0,1.022a3.054,3.054,0,1,1-3.055,3.055A3.047,3.047,0,0,1,5.582,294.854Z" transform="translate(4.309 12.144)" fill="#e4e6e9"/>
      <path id="path28910" d="M4.072,294.359A2.04,2.04,0,1,0,6.111,296.4,2.049,2.049,0,0,0,4.072,294.359Zm0,1.023A1.017,1.017,0,1,1,3.054,296.4,1.01,1.01,0,0,1,4.072,295.382Z" transform="translate(5.819 13.654)" fill="#e4e6e9"/>
      <path id="path28912" d="M0,295.134v1.022H4.652v-1.022Z" transform="translate(0 15.874)" fill="#e4e6e9" fill-rule="evenodd"/>
      <path id="path28914" d="M0,294.607v1.022H4.143v-1.022Z" transform="translate(0 14.364)" fill="#e4e6e9" fill-rule="evenodd"/>
      <path id="path28918" d="M17.935,291.537,14.489,293.7a3.751,3.751,0,0,1-1.1.473L7.7,295.6a3.354,3.354,0,0,0-2.54,3.249v2.748a3.355,3.355,0,0,0,3.348,3.347h1.6a.511.511,0,0,0,0-1.023h-1.6a2.314,2.314,0,0,1-2.322-2.324v-2.748a2.319,2.319,0,0,1,1.761-2.256l5.69-1.424a4.767,4.767,0,0,0,1.4-.6l2.9-1.821Z" transform="translate(14.777 5.571)" fill="#e4e6e9" fill-rule="evenodd"/>
      <path id="circle28924" d="M10.438,293.825a4.09,4.09,0,1,0,4.089,4.09,4.1,4.1,0,0,0-4.089-4.09Zm0,1.022a3.067,3.067,0,1,1-3.067,3.067A3.059,3.059,0,0,1,10.438,294.847Z" transform="translate(18.185 12.124)" fill="#e4e6e9"/>
      <path id="circle28926" d="M8.923,294.354a2.045,2.045,0,1,0,2.044,2.045A2.052,2.052,0,0,0,8.923,294.354Zm0,1.023A1.022,1.022,0,1,1,7.9,296.4,1.015,1.015,0,0,1,8.923,295.376Z" transform="translate(19.7 13.64)" fill="#e4e6e9"/>
      <path id="path28928" d="M8.505,289.592a.512.512,0,0,0-.471.4l-1.38,5.971-2.981-1.7a.511.511,0,0,0-.7.693l2.556,4.6a.511.511,0,1,0,.892-.5l-1.665-3,1.987,1.134a.511.511,0,0,0,.753-.327l1.126-4.875.958,2.878a.511.511,0,0,0,.845.2l1.683-1.681v2.34a.511.511,0,0,0,.783.435l2.548-1.592L13.7,298.048a.511.511,0,1,0,.914.457l2.556-5.108a.511.511,0,0,0-.727-.663L13.131,294.8v-2.654a.511.511,0,0,0-.873-.364l-1.971,1.971L9.016,289.94a.511.511,0,0,0-.511-.348Z" transform="translate(8.336 0)" fill="#e4e6e9" fill-rule="evenodd"/>
    </g>
  </g>
</svg>
