<svg xmlns="http://www.w3.org/2000/svg" xmlns:xlink="http://www.w3.org/1999/xlink" width="48" height="48" viewBox="0 0 48 48">
  <defs>
    <clipPath id="clip-path">
      <rect id="Rectangle_4927" data-name="Rectangle 4927" width="25.366" height="22.914" fill="#185ADB"/>
    </clipPath>
  </defs>
  <g id="Group_8073" data-name="Group 8073" transform="translate(-1004 -204)">
    <circle id="Ellipse_153" data-name="Ellipse 153" cx="24" cy="24" r="24" transform="translate(1004 204)" fill="rgba(0,170,255,0.1)"/>
    <g id="Group_7844" data-name="Group 7844" transform="translate(-520.472 -59.457)">
      <g id="Group_7788" data-name="Group 7788" transform="translate(1535.789 275)">
        <g id="Group_7792" data-name="Group 7792" clip-path="url(#clip-path)">
          <path id="Path_19103" data-name="Path 19103" d="M0,237.93c.09-.007.18-.021.269-.021h7.5c0,.272,0,.509,0,.747a1.918,1.918,0,0,0,2.016,2c.627,0,1.255,0,1.882,0,.08,0,.161.007.266.012,0,.64,0,1.265,0,1.89a3.889,3.889,0,0,1-.034.591,1.34,1.34,0,0,1-1.168,1.15c-.729.051-1.464.012-2.2.012a2.893,2.893,0,1,0-5.656.014H1.909c-.314,0-.629-.02-.941,0A.878.878,0,0,1,0,243.776V237.93" transform="translate(0 -222.163)" fill="#185ADB"/>
          <path id="Path_19104" data-name="Path 19104" d="M0,146.983a.871.871,0,0,1,.952-.578c.7.023,1.4-.007,2.1.028a2.65,2.65,0,0,1,1.865.906c.917,1.005,1.817,2.026,2.731,3.034.167.184.107.376.1.606H.32c-.107,0-.213.01-.32.016v-4.013" transform="translate(0 -136.715)" fill="#185ADB"/>
          <path id="Path_19105" data-name="Path 19105" d="M115.452,0a5.387,5.387,0,1,1-5.4,5.376A5.4,5.4,0,0,1,115.452,0m-.744,4.323c0,.256,0,.512,0,.768a.74.74,0,1,0,1.479.032c.014-.544.013-1.09,0-1.634a.74.74,0,1,0-1.479.017c-.006.272,0,.545,0,.817m.751,2.218a.734.734,0,0,0-.751.725.741.741,0,1,0,1.482.023.741.741,0,0,0-.732-.748" transform="translate(-102.771 0)" fill="#ff5d5d"/>
          <path id="Path_19106" data-name="Path 19106" d="M211.957,223.371a2.894,2.894,0,1,0-5.659-.015c-.635,0-1.272.04-1.9-.012a1.28,1.28,0,0,1-1.16-1.177c-.049-1.01-.013-2.025-.013-3.061.084,0,.172-.011.26-.011h2.774a.8.8,0,0,0,.916-.621c.348-.917.7-1.832,1.033-2.755a.321.321,0,0,1,.371-.249c1.866.007,3.732,0,5.6,0h.953v.274q0,3.381,0,6.762a.759.759,0,0,1-.867.862h-2.3" transform="translate(-189.762 -201.209)" fill="#185ADB"/>
          <path id="Path_19107" data-name="Path 19107" d="M271.324,149.507h-7.933a1.982,1.982,0,0,1,.119-.166c.456-.511.911-1.022,1.371-1.529a4.015,4.015,0,0,1,3.04-1.37c.858-.01,1.716,0,2.574,0a.752.752,0,0,1,.829.828c0,.741,0,1.482,0,2.238" transform="translate(-245.959 -136.744)" fill="#185ADB"/>
          <path id="Path_19108" data-name="Path 19108" d="M206.343,215.316c-.266.707-.516,1.376-.774,2.043a.193.193,0,0,1-.146.1c-.856.006-1.712,0-2.563,0a1.677,1.677,0,0,1,1.548-2.137c.632-.03,1.266-.005,1.935-.005" transform="translate(-189.385 -201.057)" fill="#185ADB"/>
          <path id="Path_19109" data-name="Path 19109" d="M66.455,307.054a1.388,1.388,0,0,1,0-2.775,1.388,1.388,0,1,1,0,2.775" transform="translate(-60.77 -284.14)" fill="#185ADB"/>
          <path id="Path_19110" data-name="Path 19110" d="M273.136,307.053a1.386,1.386,0,0,1-1.393-1.374,1.388,1.388,0,1,1,2.775-.007,1.378,1.378,0,0,1-1.382,1.381" transform="translate(-253.758 -284.14)" fill="#185ADB"/>
          <path id="Path_19111" data-name="Path 19111" d="M139.747,220.734a12.106,12.106,0,0,1,1.431.512,2.258,2.258,0,0,1,1.239,1.885h-.378c-.586,0-1.171,0-1.756,0-.376,0-.533-.149-.535-.517,0-.6,0-1.2,0-1.879" transform="translate(-130.497 -206.125)" fill="#185ADB"/>
        </g>
      </g>
    </g>
  </g>
</svg>
