<svg id="Component_7_1" data-name="Component 7 – 1" xmlns="http://www.w3.org/2000/svg" width="32" height="32" viewBox="0 0 32 32">
  <circle id="Ellipse_11" data-name="Ellipse 11" cx="16" cy="16" r="16" fill="#fbfbfb"/>
  <path id="visibility_FILL1_wght400_GRAD0_opsz24" d="M48-791.273a3.156,3.156,0,0,0,2.318-.955,3.156,3.156,0,0,0,.955-2.318,3.156,3.156,0,0,0-.955-2.318A3.156,3.156,0,0,0,48-797.818a3.156,3.156,0,0,0-2.318.955,3.156,3.156,0,0,0-.955,2.318,3.156,3.156,0,0,0,.955,2.318A3.156,3.156,0,0,0,48-791.273Zm0-1.309a1.894,1.894,0,0,1-1.391-.573,1.894,1.894,0,0,1-.573-1.391,1.894,1.894,0,0,1,.573-1.391A1.894,1.894,0,0,1,48-796.509a1.894,1.894,0,0,1,1.391.573,1.894,1.894,0,0,1,.573,1.391,1.894,1.894,0,0,1-.573,1.391A1.894,1.894,0,0,1,48-792.582Zm0,3.491a8.42,8.42,0,0,1-4.836-1.482A8.424,8.424,0,0,1,40-794.545a8.424,8.424,0,0,1,3.164-3.973A8.42,8.42,0,0,1,48-800a8.42,8.42,0,0,1,4.836,1.482A8.424,8.424,0,0,1,56-794.545a8.424,8.424,0,0,1-3.164,3.973A8.42,8.42,0,0,1,48-789.091Z" transform="translate(-32 811)" fill="#a1a1a1"/>
</svg>
