<svg xmlns="http://www.w3.org/2000/svg" width="90" height="90" viewBox="0 0 90 90">
  <g id="Group_8046" data-name="Group 8046" transform="translate(-1170.945 -187.945)">
    <g id="Rectangle_21" data-name="Rectangle 21" transform="translate(1170.945 187.945)" fill="#fff" stroke="#707070" stroke-width="1" opacity="0">
      <rect width="90" height="90" stroke="none"/>
      <rect x="0.5" y="0.5" width="89" height="89" fill="none"/>
    </g>
    <g id="Group_53" data-name="Group 53" transform="translate(1171.044 188.046)">
      <path id="deer" d="M87.883,24l-7.235-2.412a8.952,8.952,0,0,0-7.912-4.748H70.754a19.182,19.182,0,0,1-5.073-2.806h.97a9.131,9.131,0,0,0,9.12-9.12,2.806,2.806,0,0,0-5.613,0A3.512,3.512,0,0,1,66.65,8.426H61.471a14.433,14.433,0,0,1-1.135-5.613,2.806,2.806,0,1,0-5.612,0,20.025,20.025,0,0,0,.8,5.613H52.268a5.619,5.619,0,0,1-5.613-5.613,2.806,2.806,0,0,0-5.613,0A11.238,11.238,0,0,0,52.268,14.038h5.894A20.091,20.091,0,0,0,63.2,19.193c-1.182,1.144-.161-.23-9.973,14.489H22.452A16.867,16.867,0,0,0,6.288,45.805L1.124,49.678A2.809,2.809,0,0,0,2.81,54.729c1.178,0,1.665-.549,3.476-1.907L7.215,55.3A9.546,9.546,0,0,1,5.034,65.373,2.8,2.8,0,0,0,4.374,68.3c2.529,7.08.934,2.614,7.016,19.644a2.808,2.808,0,0,0,2.643,1.863h4.209a2.806,2.806,0,0,0,0-5.613H16.011l-3.483-9.753c5.17-2.19,3.99-1.495,5.925-3.189L24,87.888a2.807,2.807,0,0,0,2.662,1.919h2.806a2.806,2.806,0,1,0,0-5.613h-.784L22.859,66.719a30.315,30.315,0,0,0,2.594-3.845c.806.386.481.274,11.77.274q1.034,0,2.066-.074V87A2.806,2.806,0,1,0,44.9,87V71.81l3.029-5.869,1.18,5.9V87a2.805,2.805,0,0,0,2.806,2.806h2.806a2.806,2.806,0,1,0,0-5.612V72.229l4.993-9.985A32.461,32.461,0,0,0,71.81,46.017l3.182-9.541c.367.018.34.012,4.732.012a9.991,9.991,0,0,0,9.771-8.012l.253-1.259A2.808,2.808,0,0,0,87.883,24Z" transform="translate(0.001 -0.007)" fill="#185adb"/>
      <g id="danger_1_" data-name="danger (1)" transform="translate(4.854 0)">
        <g id="Group_6" data-name="Group 6" transform="translate(0 0)">
          <path id="Path_28" data-name="Path 28" d="M33.679,64.094,18.772,39.372a2.082,2.082,0,0,0-3.566,0L.3,64.094a2.082,2.082,0,0,0,1.783,3.157H31.9a2.082,2.082,0,0,0,1.783-3.157ZM17,46.917a1.411,1.411,0,0,1,1.581,1.339c0,2.612-.307,6.366-.307,8.979,0,.681-.746.966-1.273.966-.7,0-1.3-.285-1.3-.966,0-2.612-.307-6.366-.307-8.979C15.4,47.4,16.1,46.917,17,46.917ZM17.022,63.1a1.69,1.69,0,1,1,1.668-1.69A1.716,1.716,0,0,1,17.022,63.1Z" transform="translate(0 -38.365)" fill="#ff5d5d"/>
        </g>
      </g>
    </g>
  </g>
</svg>
