<svg xmlns="http://www.w3.org/2000/svg" width="21.333" height="24" viewBox="0 0 21.333 24">
  <g id="Group_8193" data-name="Group 8193" transform="translate(-8699.833 -2775.5)">
    <path id="delete_FILL1_wght400_GRAD0_opsz24" d="M164-816a2.568,2.568,0,0,1-1.883-.783,2.568,2.568,0,0,1-.783-1.883V-836a1.29,1.29,0,0,1-.95-.383,1.29,1.29,0,0,1-.383-.95,1.29,1.29,0,0,1,.383-.95,1.29,1.29,0,0,1,.95-.383h5.333a1.29,1.29,0,0,1,.383-.95A1.29,1.29,0,0,1,168-840h5.333a1.29,1.29,0,0,1,.95.383,1.29,1.29,0,0,1,.383.95H180a1.29,1.29,0,0,1,.95.383,1.29,1.29,0,0,1,.383.95,1.29,1.29,0,0,1-.383.95A1.29,1.29,0,0,1,180-836v17.333a2.568,2.568,0,0,1-.783,1.883,2.568,2.568,0,0,1-1.883.783Zm4-5.333a1.29,1.29,0,0,0,.95-.383,1.29,1.29,0,0,0,.383-.95V-832a1.29,1.29,0,0,0-.383-.95,1.29,1.29,0,0,0-.95-.383,1.29,1.29,0,0,0-.95.383,1.29,1.29,0,0,0-.383.95v9.333a1.29,1.29,0,0,0,.383.95A1.29,1.29,0,0,0,168-821.333Zm5.333,0a1.29,1.29,0,0,0,.95-.383,1.29,1.29,0,0,0,.383-.95V-832a1.29,1.29,0,0,0-.383-.95,1.29,1.29,0,0,0-.95-.383,1.29,1.29,0,0,0-.95.383A1.29,1.29,0,0,0,172-832v9.333a1.29,1.29,0,0,0,.383.95A1.29,1.29,0,0,0,173.333-821.333Z" transform="translate(8539.833 3615.5)" fill="#fff"/>
  </g>
</svg>
