<svg id="Component_6_2" data-name="Component 6 – 2" xmlns="http://www.w3.org/2000/svg" width="32" height="32" viewBox="0 0 32 32">
  <circle id="Ellipse_159" data-name="Ellipse 159" cx="16" cy="16" r="16" fill="#fbfbfb"/>
  <path id="delete_FILL1_wght400_GRAD0_opsz24" d="M162.333-826a1.5,1.5,0,0,1-1.1-.457,1.5,1.5,0,0,1-.457-1.1v-10.111a.753.753,0,0,1-.554-.224.753.753,0,0,1-.224-.554.753.753,0,0,1,.224-.554.753.753,0,0,1,.554-.224h3.111a.753.753,0,0,1,.224-.554.753.753,0,0,1,.554-.224h3.111a.753.753,0,0,1,.554.224.753.753,0,0,1,.224.554h3.111a.753.753,0,0,1,.554.224.752.752,0,0,1,.224.554.753.753,0,0,1-.224.554.753.753,0,0,1-.554.224v10.111a1.5,1.5,0,0,1-.457,1.1,1.5,1.5,0,0,1-1.1.457Zm2.333-3.111a.753.753,0,0,0,.554-.224.752.752,0,0,0,.224-.554v-5.444a.753.753,0,0,0-.224-.554.753.753,0,0,0-.554-.224.753.753,0,0,0-.554.224.753.753,0,0,0-.224.554v5.444a.753.753,0,0,0,.224.554A.753.753,0,0,0,164.667-829.111Zm3.111,0a.753.753,0,0,0,.554-.224.752.752,0,0,0,.224-.554v-5.444a.753.753,0,0,0-.224-.554.753.753,0,0,0-.554-.224.753.753,0,0,0-.554.224.753.753,0,0,0-.224.554v5.444a.753.753,0,0,0,.224.554A.753.753,0,0,0,167.778-829.111Z" transform="translate(-150 849)" fill="#a1a1a1"/>
</svg>
