<svg xmlns="http://www.w3.org/2000/svg" width="24" height="24" viewBox="0 0 24 24">
  <g id="Group_8088" data-name="Group 8088" transform="translate(24302 7671)">
    <rect id="Rectangle_4826" data-name="Rectangle 4826" width="24" height="24" transform="translate(-24302 -7671)" fill="#263f92" opacity="0"/>
    <path id="devices_FILL0_wght400_GRAD0_opsz24" d="M80-782.4v-3.3h2.2v-12.1a2.118,2.118,0,0,1,.646-1.554A2.118,2.118,0,0,1,84.4-800h16.5v2.2H84.4v12.1H91v3.3Zm14.3,0a1.064,1.064,0,0,1-.784-.316,1.064,1.064,0,0,1-.316-.784v-11a1.064,1.064,0,0,1,.316-.784,1.064,1.064,0,0,1,.784-.316h6.6a1.064,1.064,0,0,1,.784.316,1.064,1.064,0,0,1,.316.784v11a1.064,1.064,0,0,1-.316.784,1.064,1.064,0,0,1-.784.316Zm1.1-3.3h4.4v-7.7H95.4Zm0,0h0Z" transform="translate(-24381 -6867.8)" fill="#9d9d9d"/>
  </g>
</svg>
