<svg xmlns="http://www.w3.org/2000/svg" width="69" height="69" viewBox="0 0 69 69">
  <g id="Group_9278" data-name="Group 9278" transform="translate(-406 -457)">
    <g id="Ellipse_165" data-name="Ellipse 165" transform="translate(406 457)" fill="none" stroke="#aab6c1" stroke-width="1">
      <circle cx="34.5" cy="34.5" r="34.5" stroke="none"/>
      <circle cx="34.5" cy="34.5" r="34" fill="none"/>
    </g>
    <path id="memory_FILL0_wght200_GRAD0_opsz24" d="M188.747-763.825v-7.428h7.429v7.428Zm1.857-1.857h3.714V-769.4H190.6Zm-2.786,12.143V-756.4h-3.5a2.9,2.9,0,0,1-2.141-.859,2.905,2.905,0,0,1-.859-2.141v-3.5h-2.857v-1.857h2.857v-5.571h-2.857v-1.857h2.857v-3.5a2.906,2.906,0,0,1,.859-2.141,2.906,2.906,0,0,1,2.141-.859h3.5v-2.857h1.857v2.857h5.571v-2.857H197.1v2.857h3.5a2.906,2.906,0,0,1,2.141.859,2.906,2.906,0,0,1,.859,2.141v3.5h2.857v1.857H203.6v5.571h2.857v1.857H203.6v3.5a2.905,2.905,0,0,1-.859,2.141,2.9,2.9,0,0,1-2.141.859h-3.5v2.857h-1.857V-756.4h-5.571v2.857Zm12.786-4.714a1.092,1.092,0,0,0,.786-.357,1.092,1.092,0,0,0,.357-.786v-16.286a1.093,1.093,0,0,0-.357-.786,1.093,1.093,0,0,0-.786-.357H184.318a1.093,1.093,0,0,0-.786.357,1.093,1.093,0,0,0-.357.786V-759.4a1.092,1.092,0,0,0,.357.786,1.092,1.092,0,0,0,.786.357ZM192.461-767.539Z" transform="translate(248.539 1259.539)" fill="#e4e6e9"/>
  </g>
</svg>
