<svg xmlns="http://www.w3.org/2000/svg" width="91" height="89" viewBox="0 0 91 89">
  <g id="Group_8036" data-name="Group 8036" transform="translate(-491 -172)">
    <rect id="Rectangle_1" data-name="Rectangle 1" width="88.5" height="88.5" transform="translate(491.5 172.5)" fill="rgba(255,255,255,0)"/>
    <path id="Union_2" data-name="Union 2" d="M82.727,69.455,66.2,54.51h4.6L91,69.455Zm-16.544,0-4.964-8.08c.036-.056.075-.11.108-.168a4.71,4.71,0,0,0,.468-3.6l-.836-3.1H61.6L74.456,69.455Zm-16.546,0L47.8,54.51h3.341l1.5,5.567a4.749,4.749,0,0,0,3,3.237l2.264,6.142Zm-16.546,0L35.36,63.3a4.7,4.7,0,0,0,3.212-1.84l4.5-5.925-1.71,13.921Zm-16.544,0L29.4,54.51h2.547l-.923,1.215a4.71,4.71,0,0,0-.922,3.509,4.766,4.766,0,0,0,.3,1.127l-5.587,9.094ZM0,69.455,20.2,54.51h4.6L8.273,69.455Zm53.95-9.731L50.105,45.462,39,35.889a3.376,3.376,0,0,1-.581-.655,6.538,6.538,0,0,1-1.286-2.978,30.461,30.461,0,0,1,.255-10.477,21.8,21.8,0,0,0-3.706,9.416,2.167,2.167,0,1,1-4.272-.726c2.653-15.615,13.544-17.837,14.007-17.924a2.2,2.2,0,0,1,.329-.033,4.874,4.874,0,0,1,1.954.062c2.312.576,3.328,3.8,2.551,6.5-.132.675-.283,1.4-.437,2.171L46.44,17.225a2.79,2.79,0,0,0-5.279,1.806L44.6,29.1a2.808,2.808,0,0,0,1.741,1.738l.32.109a18.88,18.88,0,0,0,.152,2.014c.016.27.024.52.027.755l8.47,7.3A3.386,3.386,0,0,1,56.372,42.7l4.115,15.266a3.385,3.385,0,1,1-6.537,1.762Zm-21.2,1.564a3.386,3.386,0,0,1-.648-4.744l7.276-9.576L38.931,36.9l7.047,6.076.218,4.914a3.386,3.386,0,0,1-.686,2.2L37.493,60.641a3.385,3.385,0,0,1-4.744.648ZM57.46,33.955,46.546,30.243a2.166,2.166,0,0,1-1.352-1.35L41.75,18.83a2.167,2.167,0,0,1,4.1-1.4l3.1,9.056,9.905,3.369a2.167,2.167,0,1,1-1.4,4.1ZM44.146,6.094a6.094,6.094,0,1,1,6.094,6.094A6.094,6.094,0,0,1,44.146,6.094Z" transform="translate(491 191.412)" fill="#185adb"/>
    <path id="Path_17" data-name="Path 17" d="M18.455,35.716A1.675,1.675,0,0,1,15.711,37L6.553,29.416H1.675A1.675,1.675,0,0,1,0,27.741V21.067a1.675,1.675,0,0,1,1.675-1.676H6.553L15.711,11.8a1.676,1.676,0,0,1,2.744,1.29V35.716ZM24.893,33.1c-.041,0-.08,0-.121,0a1.673,1.673,0,0,1-1.184-.49l-.224-.225A1.674,1.674,0,0,1,23.2,30.2a9.741,9.741,0,0,0-.258-11.937,1.674,1.674,0,0,1,.115-2.24l.224-.224a1.639,1.639,0,0,1,1.268-.488,1.677,1.677,0,0,1,1.214.613,13.416,13.416,0,0,1,.349,16.5A1.676,1.676,0,0,1,24.893,33.1Zm6.926,5.177a1.677,1.677,0,0,1-1.21.593l-.07,0a1.674,1.674,0,0,1-1.185-.49l-.22-.22a1.675,1.675,0,0,1-.1-2.263,17.852,17.852,0,0,0-.3-23.325,1.675,1.675,0,0,1,.067-2.293l.22-.22a1.631,1.631,0,0,1,1.235-.492,1.675,1.675,0,0,1,1.2.562,21.509,21.509,0,0,1,.352,28.147Z" transform="translate(491 162.435)" fill="#49a647"/>
  </g>
</svg>
