<svg xmlns="http://www.w3.org/2000/svg" width="48" height="48" viewBox="0 0 48 48">
  <g id="Group_8067" data-name="Group 8067" transform="translate(-176 -1200)">
    <circle id="Ellipse_156" data-name="Ellipse 156" cx="24" cy="24" r="24" transform="translate(176 1200)" fill="rgba(0,170,255,0.1)"/>
    <g id="Group_8037" data-name="Group 8037" transform="translate(-400.584 951.416)">
      <g id="Rectangle_2" data-name="Rectangle 2" transform="translate(586.584 258.584)" fill="#fff" stroke="#707070" stroke-width="1" opacity="0">
        <rect width="30" height="30" stroke="none"/>
        <rect x="0.5" y="0.5" width="29" height="29" fill="none"/>
      </g>
      <g id="Group_1" data-name="Group 1" transform="translate(588.687 260.039)">
        <g id="driving" transform="translate(0 0)">
          <path id="Path_3" data-name="Path 3" d="M237.215,387.981a1.044,1.044,0,1,0,1.044,1.044A1.045,1.045,0,0,0,237.215,387.981Z" transform="translate(-227.507 -367.444)" fill="#185ADB"/>
          <path id="Path_4" data-name="Path 4" d="M187,302.55a5.546,5.546,0,0,0-3.851,1.551l1.343.384-.924,2.837h.922a2.632,2.632,0,0,1,5.019,0h.922l-.924-2.837,1.343-.384A5.547,5.547,0,0,0,187,302.55Z" transform="translate(-177.292 -286.535)" fill="#185ADB"/>
          <path id="Path_5" data-name="Path 5" d="M159.905,422.7h-1.44l-.412,1.266-.863-.141a5.583,5.583,0,0,0,4.431,3.591v-3A2.644,2.644,0,0,1,159.905,422.7Z" transform="translate(-152.707 -400.329)" fill="#185ADB"/>
          <path id="Path_6" data-name="Path 6" d="M91.78,201.654l-2.233-5.522a2.1,2.1,0,0,0-1.957-1.32H76.815a2.1,2.1,0,0,0-1.957,1.32l-2.233,5.522a1.774,1.774,0,0,0,.5,2.025l3.06,2.581.566.093.922-2.83-.824-.236-.987.027-.044-1.587.724-.02a7.145,7.145,0,0,1,11.316,0l.725.02-.044,1.587-.987-.027-.824.236.922,2.83.566-.093,3.06-2.581A1.774,1.774,0,0,0,91.78,201.654Z" transform="translate(-72.495 -184.5)" fill="#185ADB"/>
          <path id="Path_7" data-name="Path 7" d="M274.05,422.7h-1.44a2.644,2.644,0,0,1-1.715,1.715v3a5.582,5.582,0,0,0,4.431-3.591l-.863.141Z" transform="translate(-260.393 -400.329)" fill="#185ADB"/>
          <circle id="Ellipse_1" data-name="Ellipse 1" cx="4.759" cy="4.759" r="4.759" transform="translate(4.949)" fill="#185ADB"/>
        </g>
        <path id="Subtraction_1" data-name="Subtraction 1" d="M2.9,5.118a.193.193,0,0,1-.137-.056L.476,2.779A1.626,1.626,0,0,1,1.628,0,1.616,1.616,0,0,1,2.779.473L2.9.591,3.016.473a1.638,1.638,0,0,1,2.3,0,1.633,1.633,0,0,1,0,2.3L3.034,5.062A.193.193,0,0,1,2.9,5.118Zm0-1.878a.332.332,0,0,0-.332.332.332.332,0,0,0,.663,0A.332.332,0,0,0,2.9,3.24Zm0-2.022a.422.422,0,0,0-.331.153.432.432,0,0,0-.095.353l.2,1.147a.229.229,0,0,0,.452,0l.2-1.147a.432.432,0,0,0-.095-.353A.422.422,0,0,0,2.9,1.217ZM4.773.829a.193.193,0,0,0-.136.33.675.675,0,0,1,0,.94.193.193,0,1,0,.274.272,1.065,1.065,0,0,0,0-1.485A.192.192,0,0,0,4.773.829Z" transform="translate(16.519 3.831)" fill="#185ADB"/>
      </g>
    </g>
  </g>
</svg>
