<svg xmlns="http://www.w3.org/2000/svg" width="48" height="48" viewBox="0 0 48 48">
  <g id="Group_8069" data-name="Group 8069" transform="translate(-583 -2178)">
    <circle id="Ellipse_157" data-name="Ellipse 157" cx="24" cy="24" r="24" transform="translate(583 2178)" fill="rgba(24,90,219,0.1)"/>
    <g id="Group_8040" data-name="Group 8040" transform="translate(1501.504 -3743.497)">
      <g id="Group_7954" data-name="Group 7954" transform="translate(-909.726 5931.274)">
        <g id="Rectangle_2" data-name="Rectangle 2" transform="translate(0.223 0.223)" fill="#fff" stroke="#707070" stroke-width="1" opacity="0">
          <rect width="30" height="30" stroke="none"/>
          <rect x="0.5" y="0.5" width="29" height="29" fill="none"/>
        </g>
        <g id="Group_1" data-name="Group 1" transform="translate(3.462 0.944)">
          <g id="driving" transform="translate(0 0)">
            <path id="Path_3" data-name="Path 3" d="M237.272,387.981a1.1,1.1,0,1,0,1.1,1.1A1.1,1.1,0,0,0,237.272,387.981Z" transform="translate(-227.038 -366.332)" fill="#185adb"/>
            <path id="Path_4" data-name="Path 4" d="M187.208,302.55a5.846,5.846,0,0,0-4.059,1.635l1.416.405-.974,2.99h.972a2.774,2.774,0,0,1,5.29,0h.972l-.974-2.99,1.416-.405A5.847,5.847,0,0,0,187.208,302.55Z" transform="translate(-176.975 -285.668)" fill="#185adb"/>
            <path id="Path_5" data-name="Path 5" d="M160.052,422.7h-1.518l-.435,1.335-.91-.149a5.885,5.885,0,0,0,4.671,3.786v-3.163A2.787,2.787,0,0,1,160.052,422.7Z" transform="translate(-152.464 -399.117)" fill="#185adb"/>
            <path id="Path_6" data-name="Path 6" d="M92.825,202.025,90.471,196.2a2.216,2.216,0,0,0-2.063-1.391H77.049a2.216,2.216,0,0,0-2.063,1.391l-2.354,5.821a1.87,1.87,0,0,0,.529,2.135l3.226,2.721.6.1L77.956,204l-.868-.248-1.04.029L76,202.1l.763-.021a7.532,7.532,0,0,1,11.928,0l.764.021-.046,1.673-1.04-.029L87.5,204l.972,2.983.6-.1L92.3,204.16A1.87,1.87,0,0,0,92.825,202.025Z" transform="translate(-72.495 -183.941)" fill="#185adb"/>
            <path id="Path_7" data-name="Path 7" d="M274.221,422.7H272.7a2.787,2.787,0,0,1-1.808,1.808v3.163a5.885,5.885,0,0,0,4.671-3.785l-.91.149Z" transform="translate(-259.824 -399.117)" fill="#185adb"/>
            <circle id="Ellipse_1" data-name="Ellipse 1" cx="5.017" cy="5.017" r="5.017" transform="translate(5.217)" fill="#185adb"/>
          </g>
        </g>
      </g>
      <g id="Group_7956" data-name="Group 7956" transform="translate(-888.982 5933.423)">
        <g id="Group_8087" data-name="Group 8087">
          <path id="Path_19216" data-name="Path 19216" d="M0,6.309V1.068a.33.33,0,0,0,.015-.044,1.2,1.2,0,0,1,.9-.986c.051-.015.1-.025.155-.037H8.282q0,2.523,0,5.045a1.435,1.435,0,0,1-.025.289,1.207,1.207,0,0,1-1.2.974q-.865,0-1.73,0a.117.117,0,0,0-.118.071Q4.7,7.287,4.19,8.193c-.014.025-.029.049-.05.082-.02-.033-.035-.057-.05-.082q-.51-.9-1.018-1.809a.129.129,0,0,0-.131-.078q-1.471,0-2.943,0M3.427,3.154H3.414c0,.17,0,.34,0,.509a.726.726,0,0,0,1.451.016q.014-.525,0-1.051a.723.723,0,0,0-.672-.686.711.711,0,0,0-.761.591,4.73,4.73,0,0,0,0,.621m3.369,0h.013c0-.17,0-.34,0-.509a.727.727,0,0,0-1.453,0q-.007.505,0,1.01a.727.727,0,0,0,.672.7.711.711,0,0,0,.764-.6,4.774,4.774,0,0,0,0-.613M2.44,3.881V1.946H1.478v.482h.474V3.885H1.476v.478H2.922V3.881Z" fill="#49a647"/>
          <path id="Path_19217" data-name="Path 19217" d="M240.51,150.445c0-.156,0-.312,0-.468a.243.243,0,1,1,.485,0q0,.472,0,.944a.243.243,0,1,1-.485-.006c0-.156,0-.312,0-.468" transform="translate(-236.612 -147.291)" fill="#49a647"/>
          <path id="Path_19218" data-name="Path 19218" d="M360.275,150.445c0-.156,0-.312,0-.468a.243.243,0,1,1,.485-.005q0,.472,0,.944a.243.243,0,1,1-.485,0c0-.156,0-.312,0-.468" transform="translate(-354.436 -147.291)" fill="#49a647"/>
        </g>
      </g>
    </g>
  </g>
</svg>
