<svg xmlns="http://www.w3.org/2000/svg" width="90" height="90" viewBox="0 0 90 90">
  <g id="Group_8045" data-name="Group 8045" transform="translate(-586.239 -1127.239)">
    <g id="Rectangle_8" data-name="Rectangle 8" transform="translate(586.239 1127.239)" fill="#1b2f6b" stroke="#707070" stroke-width="1" opacity="0">
      <rect width="90" height="90" stroke="none"/>
      <rect x="0.5" y="0.5" width="89" height="89" fill="none"/>
    </g>
    <g id="Group_12" data-name="Group 12" transform="translate(595.326 1130.651)">
      <g id="_x39_1" transform="translate(0 0)">
        <path id="Path_28" data-name="Path 28" d="M52.506,34.4l-7.8,7.8.355.355a3,3,0,0,1,0,4.079l-7.271,7.271a3,3,0,0,1-4.079,0l-.355-.355L27.5,59.406H57.472a1.676,1.676,0,0,0,1.773-1.773V47.878A16.8,16.8,0,0,0,52.506,34.4Z" transform="translate(12.581 23.77)" fill="#185ADB"/>
        <path id="Path_29" data-name="Path 29" d="M45.335,73.249a3.005,3.005,0,0,1,0-4.079L52.607,61.9a3,3,0,0,1,4.079,0l.355.355,6.385-6.385c-11.7-6.207-7.981-4.256-10.286-5.32a6.7,6.7,0,0,1-3.547-5.32A11.386,11.386,0,0,0,51.9,43.454,16.907,16.907,0,0,0,57.04,31.927,4.949,4.949,0,0,0,61.3,27.138V20.044C61.3,8.871,52.252,1.6,40.9,1.6c-11.173,0-20.218,7.271-20.218,18.444v7.094a4.8,4.8,0,0,0,4.256,4.788,16.851,16.851,0,0,0,7.449,13.3,6.518,6.518,0,0,1-3.724,5.32l-2.306,1.064L15.186,57.465l-1.951,1.064A16.828,16.828,0,0,0,4.9,73.071v9.754A1.676,1.676,0,0,0,6.673,84.6H34.517L45.69,73.426ZM28.31,31.217v-8.69c0-5.32,3.192-7.271,12.592-7.271s12.592,1.773,12.592,7.271v9.045A12.648,12.648,0,0,1,40.015,44.164C32.921,43.809,28.31,37.779,28.31,31.217Zm2.483,40.967H16.96a1.676,1.676,0,0,1-1.773-1.773,1.777,1.777,0,0,1,1.773-1.773H30.793a1.773,1.773,0,0,1,0,3.547Zm-.177-18.8A10.119,10.119,0,0,0,35.4,46.824c.177,0,.355.177.532.177a15.3,15.3,0,0,0,4.966.709,16.719,16.719,0,0,0,5.32-.887,9.957,9.957,0,0,0,4.611,6.385L40.547,59.77Z" transform="translate(-4.9 -1.6)" fill="#185ADB"/>
      </g>
    </g>
  </g>
</svg>
