<svg xmlns="http://www.w3.org/2000/svg" width="48" height="48" viewBox="0 0 48 48">
  <g id="Group_8065" data-name="Group 8065" transform="translate(-176 -874)">
    <circle id="Ellipse_155" data-name="Ellipse 155" cx="24" cy="24" r="24" transform="translate(176 874)" fill="rgba(0,170,255,0.1)"/>
    <g id="Group_7861" data-name="Group 7861" transform="translate(187.499 880.151)">
      <g id="Group_7896" data-name="Group 7896" transform="translate(0 3.946)">
        <path id="Path_19156" data-name="Path 19156" d="M26.295,177.625a2.613,2.613,0,0,1-1.684-.965c-1.232-1.574-2.392-3.2-3.615-4.784a1.192,1.192,0,0,0-.816-.412c-2.291-.026-4.584.022-6.875-.017a11.79,11.79,0,0,1-2.006-.4c-.375.5-.744,1-1.111,1.509-.4.547-.74,1.3-1.394,1.591a.7.7,0,0,1-.924-.828,2.893,2.893,0,0,1,.574-.939c.266-.384.535-.766.809-1.143q.331-.456.675-.9c.175-.226.361-.555.644-.653.5-.174.964.463,1.075.881.538-.817,1.133-1.6,1.7-2.4.48-.675.858-1.414,1.386-2.057.115-.139.362-.357.515-.142a1.034,1.034,0,0,1,.118.461c.041.319.013.694.267.936.335.32,1.007.221,1.422.221,1.416,0,2.832.028,4.247-.01a2.344,2.344,0,0,1,2.118,1.051c1.4,1.925,2.84,3.822,4.262,5.732a2.1,2.1,0,0,1,.09,2.847A1.571,1.571,0,0,1,26.295,177.625Z" transform="translate(-6.792 -147.533)" fill="#185ADB"/>
        <path id="Path_19157" data-name="Path 19157" d="M52.4,69.117a3.476,3.476,0,1,1,3.5-3.455,3.5,3.5,0,0,1-3.5,3.455" transform="translate(-42.315 -57.867)" fill="#185ADB"/>
        <path id="Path_19158" data-name="Path 19158" d="M18.7,115.693a16.557,16.557,0,0,1-1.292-6.809,18.239,18.239,0,0,1,.21-2.41,3.424,3.424,0,0,1,2.865-2.91,2.07,2.07,0,0,1,2.243,1.692c-.515-.136-.986-.256-1.455-.384a1.553,1.553,0,0,0-2.057.981,1.537,1.537,0,0,0,1.154,1.959c.447.143.906.256,1.363.364.436.1.878.181,1.338.274a1.623,1.623,0,0,1-.274,1.5c-1.362,1.864-2.684,3.757-4.095,5.743" transform="translate(-15.044 -93.65)" fill="#185ADB"/>
        <path id="Path_19159" data-name="Path 19159" d="M38.753,117.586c-1.455-.254-3.248-.526-5.021-.893-.977-.2-1.381-.879-1.153-1.642.215-.72.892-.981,1.823-.724a15.591,15.591,0,0,0,9.542-.132,1.233,1.233,0,1,1,.785,2.324,14.119,14.119,0,0,1-2.2.614c-1.125.19-2.268.278-3.775.453" transform="translate(-28.113 -102.767)" fill="#185ADB"/>
        <path id="Path_19160" data-name="Path 19160" d="M111.348,136.078l-.544,1.227-8.255-3.646c-.325.729-.638,1.443-.961,2.152-.3.649-.756.88-1.261.649-.476-.219-.552-.688-.35-1.331a2.075,2.075,0,0,1,1.972-1.738,1.667,1.667,0,0,0,.767-.233,2.2,2.2,0,0,1,2.3.092c2.065.974,4.167,1.867,6.333,2.828" transform="translate(-86.347 -118.996)" fill="#185ADB"/>
        <path id="Path_19161" data-name="Path 19161" d="M3.92,92.5,2.8,93.605c-.789-.519-1.637-1.054-2.458-1.629a.673.673,0,0,1-.2-1,.715.715,0,0,1,1.049-.254C2.117,91.3,3.02,91.908,3.92,92.5" transform="translate(0 -82.443)" fill="#185ADB"/>
        <path id="Path_19162" data-name="Path 19162" d="M118.876,104.846l-1.9-.619a1.335,1.335,0,0,1,1.252-.974.884.884,0,0,1,.606.388,1.037,1.037,0,0,1,.113.528,2.2,2.2,0,0,1-.075.677" transform="translate(-101.138 -93.384)" fill="#185ADB"/>
        <path id="Path_19163" data-name="Path 19163" d="M107.987,71.207a.139.139,0,0,1-.071-.091.154.154,0,0,1,.018-.116l.284-.5a.258.258,0,0,1,.1-.1.4.4,0,0,1,.087-.039l2.811-1.086-1.567-.886a.148.148,0,0,1-.07-.087.14.14,0,0,1,.014-.115l.289-.512a.141.141,0,0,1,.091-.071.147.147,0,0,1,.111.015l2.612,1.476a.142.142,0,0,1,.056.2l-.283.5a.287.287,0,0,1-.074.088.36.36,0,0,1-.093.05l-2.768,1.118,1.614.912a.153.153,0,0,1,.059.211l-.292.517a.142.142,0,0,1-.09.068.148.148,0,0,1-.118-.015Z" transform="translate(-93.506 -64.047)" fill="#185ADB"/>
        <path id="Path_19164" data-name="Path 19164" d="M130.73,45.18a.2.2,0,0,1-.165-.006.219.219,0,0,1-.11-.125l-.287-.768a.365.365,0,0,1-.024-.2.6.6,0,0,1,.037-.131l1.387-4.056-2.4.9a.209.209,0,0,1-.159,0,.2.2,0,0,1-.113-.12l-.293-.783a.2.2,0,0,1,.006-.165.211.211,0,0,1,.118-.107l4-1.5a.2.2,0,0,1,.272.124l.287.768a.4.4,0,0,1,.029.161.505.505,0,0,1-.031.147l-1.313,4.037,2.469-.924a.216.216,0,0,1,.283.129l.3.791a.2.2,0,0,1-.008.161.212.212,0,0,1-.124.114Z" transform="translate(-110.027 -38.103)" fill="#185ADB"/>
      </g>
    </g>
  </g>
</svg>
