<svg id="Component_5_2" data-name="Component 5 – 2" xmlns="http://www.w3.org/2000/svg" width="32" height="32" viewBox="0 0 32 32">
  <circle id="Ellipse_11" data-name="Ellipse 11" cx="16" cy="16" r="16" fill="#fbfbfb"/>
  <path id="edit_FILL1_wght400_GRAD0_opsz24" d="M120.778-826a.753.753,0,0,1-.554-.224.753.753,0,0,1-.224-.554v-1.886a1.536,1.536,0,0,1,.117-.593,1.512,1.512,0,0,1,.331-.5l9.819-9.8a1.745,1.745,0,0,1,.515-.331,1.535,1.535,0,0,1,.593-.117,1.608,1.608,0,0,1,.6.117,1.366,1.366,0,0,1,.506.35l1.069,1.089a1.271,1.271,0,0,1,.34.506,1.684,1.684,0,0,1,.107.583,1.657,1.657,0,0,1-.107.593,1.457,1.457,0,0,1-.34.515l-9.8,9.8a1.51,1.51,0,0,1-.5.331,1.535,1.535,0,0,1-.593.117Zm10.578-10.267,1.089-1.089-1.089-1.089-1.089,1.089Z" transform="translate(-111 849)" fill="#a1a1a1"/>
</svg>
