<svg xmlns="http://www.w3.org/2000/svg" width="18" height="14.4" viewBox="0 0 18 14.4">
  <path id="mail_FILL1_wght400_GRAD0_opsz24" d="M96.2-785.6a1.733,1.733,0,0,0,1.271-.529A1.733,1.733,0,0,0,98-787.4v-10.8a1.733,1.733,0,0,0-.529-1.271A1.733,1.733,0,0,0,96.2-800H81.8a1.733,1.733,0,0,0-1.271.529A1.733,1.733,0,0,0,80-798.2v10.8a1.733,1.733,0,0,0,.529,1.271,1.733,1.733,0,0,0,1.271.529ZM89-792.057a.9.9,0,0,1-.236-.034.935.935,0,0,1-.236-.1l-6.367-3.982a.745.745,0,0,1-.27-.281.777.777,0,0,1-.09-.371.734.734,0,0,1,.382-.675.717.717,0,0,1,.787.022L89-793.7l6.03-3.78a.7.7,0,0,1,.787-.011.741.741,0,0,1,.382.664.825.825,0,0,1-.09.394.6.6,0,0,1-.27.259l-6.368,3.982a.935.935,0,0,1-.236.1A.9.9,0,0,1,89-792.057Z" transform="translate(-80 800)" fill="#fff"/>
</svg>
