<svg xmlns="http://www.w3.org/2000/svg" width="60" height="60" viewBox="0 0 60 60">
  <g id="Group_9992" data-name="Group 9992" transform="translate(-434 -497)">
    <circle id="Ellipse_151" data-name="Ellipse 151" cx="30" cy="30" r="30" transform="translate(434 497)" fill="#333d4e"/>
    <path id="visibility_FILL0_wght200_GRAD0_opsz24" d="M99.721-742.977a5.89,5.89,0,0,0,4.337-1.789,5.928,5.928,0,0,0,1.781-4.344,5.89,5.89,0,0,0-1.789-4.337,5.927,5.927,0,0,0-4.344-1.781,5.89,5.89,0,0,0-4.337,1.789,5.928,5.928,0,0,0-1.781,4.344,5.89,5.89,0,0,0,1.789,4.337A5.928,5.928,0,0,0,99.721-742.977Zm-.008-1.6a4.366,4.366,0,0,1-3.206-1.32,4.365,4.365,0,0,1-1.32-3.206,4.365,4.365,0,0,1,1.32-3.206,4.366,4.366,0,0,1,3.206-1.32,4.366,4.366,0,0,1,3.206,1.32,4.366,4.366,0,0,1,1.32,3.206,4.366,4.366,0,0,1-1.32,3.206A4.366,4.366,0,0,1,99.713-744.576Zm0,6.371a17.612,17.612,0,0,1-9.928-2.965,18.3,18.3,0,0,1-6.713-7.933,18.312,18.312,0,0,1,6.708-7.933A17.591,17.591,0,0,1,99.709-760a17.613,17.613,0,0,1,9.928,2.964,18.3,18.3,0,0,1,6.713,7.933,18.311,18.311,0,0,1-6.708,7.933A17.59,17.59,0,0,1,99.718-738.205ZM99.713-749.1Zm0,9.221a16,16,0,0,0,8.7-2.494,16.385,16.385,0,0,0,6.056-6.727,16.385,16.385,0,0,0-6.056-6.727,16,16,0,0,0-8.7-2.494,16,16,0,0,0-8.7,2.494A16.385,16.385,0,0,0,84.96-749.1a16.385,16.385,0,0,0,6.056,6.727A16,16,0,0,0,99.713-739.882Z" transform="translate(364.48 1275.91)" fill="#e4e6e9"/>
  </g>
</svg>
