<svg xmlns="http://www.w3.org/2000/svg" xmlns:xlink="http://www.w3.org/1999/xlink" width="50" height="50" viewBox="0 0 50 50">
  <defs>
    <clipPath id="clip-path">
      <rect id="Rectangle_4942" data-name="Rectangle 4942" width="47.672" height="41.062" fill="#1b2f6b"/>
    </clipPath>
  </defs>
  <g id="Group_7894" data-name="Group 7894" transform="translate(-497.357 -4580.357)">
    <rect id="Rectangle_1" data-name="Rectangle 1" width="50" height="50" transform="translate(497.357 4580.357)" fill="rgba(255,255,255,0)"/>
    <g id="Group_7857" data-name="Group 7857" transform="translate(498.521 4584.826)">
      <g id="Group_7856" data-name="Group 7856" clip-path="url(#clip-path)">
        <path id="Path_19148" data-name="Path 19148" d="M61.9,97.327q-.728-3.633-1.456-7.266c-.717-3.582-1.455-7.161-2.145-10.748A5.67,5.67,0,0,1,60.9,73.207a6.154,6.154,0,0,1,6.889.407c2.489,1.957,4.982,3.909,7.447,5.9a2.318,2.318,0,0,0,2,.512C80.826,79.4,84.415,78.8,88,78.208a2.578,2.578,0,0,1,2.383.937c.29-.932.565-1.812.838-2.692.724-2.33,1.454-4.659,2.167-6.992A2.093,2.093,0,0,1,94.751,67.9c.1-.032.2-.237.2-.364.02-.685.009-1.37.009-2.085h1.185c0,.757-.018,1.506.012,2.254a.914.914,0,0,0,.265.552,1.859,1.859,0,0,1,.546,1.972c-.307,1.036-.633,2.066-.95,3.1-.047.153-.088.308-.141.5.688.236,1.358.45,2.012.7a.552.552,0,0,1,.3.393c.015,3.33.009,6.661.006,9.992a.7.7,0,0,1-.053.149c-.909-.049-1.836-.1-2.763-.149-.835-.047-1.672-.084-2.505-.154-.329-.028-.457.092-.545.4-.245.85-.515,1.692-.791,2.533a1.819,1.819,0,1,1-3.47-1.076c.3-1.02.631-2.033.947-3.049.047-.151.083-.305.137-.508l-4.98.871c-2.68.469-5.358.946-8.04,1.4a3.63,3.63,0,0,1-2.844-.653c-.622-.452-1.261-.88-2.013-1.4.136.662.244,1.206.359,1.748.122.577.224,1.16.387,1.725a.761.761,0,0,1-.242.86q-4.558,4.525-9.09,9.078a9.08,9.08,0,0,0-.615.76l-.183-.119" transform="translate(-50.532 -56.852)" fill="#1b2f6b"/>
        <path id="Path_19149" data-name="Path 19149" d="M3.733,60.294c0,.919-.007,1.783.01,2.648a.4.4,0,0,0,.225.265,3.122,3.122,0,0,1,1.855,2.55c.372,2.5.7,5,1.039,7.5.5,3.653.986,7.307,1.485,11H2.426Q2.2,82.53,1.978,80.8,1.305,75.612.634,70.419c-.172-1.333-.37-2.663-.5-4A2.918,2.918,0,0,1,1.443,63.44a.5.5,0,0,0,.229-.329c.019-.916.01-1.832.01-2.815-.258,0-.481,0-.7,0a.88.88,0,0,1-.959-.9c-.012-2.329-.047-4.66.022-6.988a2.744,2.744,0,0,1,2.749-2.672,2.748,2.748,0,0,1,2.861,2.6c.092,1.141.042,2.295.047,3.442q.008,1.673,0,3.347c0,.884-.3,1.174-1.184,1.175H3.733" transform="translate(0 -43.197)" fill="#1b2f6b"/>
        <path id="Path_19150" data-name="Path 19150" d="M62,10.916A6.716,6.716,0,1,1,55.317,4.15,6.74,6.74,0,0,1,62,10.916" transform="translate(-42.19 -3.605)" fill="#1b2f6b"/>
        <path id="Path_19151" data-name="Path 19151" d="M111.5,261.78l7.535-7.666c.141.67.284,1.169.342,1.678.044.38.22.43.547.43,2.56-.005,5.12.012,7.68.008a4.381,4.381,0,0,1,3.344,1.377c1.339,1.4,2.734,2.738,4.176,4.174Z" transform="translate(-96.849 -220.719)" fill="#1b2f6b"/>
        <path id="Path_19152" data-name="Path 19152" d="M214.365,0l1.1,1.01a6.853,6.853,0,0,0,.329,9.415l-1.019,1.085A8.24,8.24,0,0,1,214.365,0" transform="translate(-184.331)" fill="#1b2f6b"/>
        <path id="Path_19153" data-name="Path 19153" d="M257.215,16.618l-.986,1.059a6.6,6.6,0,0,1-.33-9.3l1.094,1.026c-1.792,2.547-1.738,4.223.223,7.212" transform="translate(-220.746 -7.278)" fill="#1b2f6b"/>
        <path id="Path_19154" data-name="Path 19154" d="M298.712,17.908a3.752,3.752,0,0,0,.175,4.979l-1.015,1.092a5.1,5.1,0,0,1-.24-7.085l1.08,1.014" transform="translate(-257.375 -14.674)" fill="#1b2f6b"/>
        <path id="Path_19155" data-name="Path 19155" d="M328.752,31.109v3.424c-.652,0-1.3.043-1.947-.015a1.012,1.012,0,0,1-.788-1.006c-.017-.442-.016-.886,0-1.329a1.074,1.074,0,0,1,1.1-1.072c.525-.007,1.049,0,1.633,0" transform="translate(-283.162 -27.018)" fill="#1b2f6b"/>
      </g>
    </g>
  </g>
</svg>
