<svg xmlns="http://www.w3.org/2000/svg" width="90" height="90" viewBox="0 0 90 90">
  <g id="Group_8052" data-name="Group 8052" transform="translate(-173.435 -178.436)">
    <g id="Rectangle_13" data-name="Rectangle 13" transform="translate(173.435 178.436)" fill="#fff" stroke="#707070" stroke-width="1" opacity="0">
      <rect width="90" height="90" stroke="none"/>
      <rect x="0.5" y="0.5" width="89" height="89" fill="none"/>
    </g>
    <g id="Group_36" data-name="Group 36" transform="translate(181.634 178.812)">
      <path id="Line_1" data-name="Line 1" d="M3.9,77.84H-1.5V47.324H3.9Zm0-48.824H-1.5V-1.5H3.9Z" transform="translate(1.5 1.5)" fill="#49a647"/>
      <path id="Subtraction_2" data-name="Subtraction 2" d="M3.159,88.5H0V62.556l3.159-5.347V88.5ZM.87,43.547h0A2.912,2.912,0,0,1,0,43.414V32.43a18.579,18.579,0,0,1,3.159,5.836v4.17a2.881,2.881,0,0,1-1.674,1.045A2.952,2.952,0,0,1,.87,43.547ZM3.159,14.5h0L0,12.713V0H3.159V14.5Z" transform="translate(56.026 1.12)" fill="#49a647"/>
      <path id="Path_58" data-name="Path 58" d="M6.326,14.746C6.562,7.036,13.2.594,21.147.357L32.924.007c7.95-.237,14.2,5.822,13.967,13.532l-.43,14.079,1.329-1.492a2.707,2.707,0,0,1,3.7-.385,2.461,2.461,0,0,1,.175,3.571L48.5,32.857A9.255,9.255,0,0,0,46.122,38.7L45.96,44c-.236,7.71-6.871,14.152-14.821,14.389l-11.777.351c-7.95.237-14.2-5.822-13.967-13.532l.162-5.293A8.247,8.247,0,0,0,3.528,34.2L.581,30.832a2.517,2.517,0,0,1,.393-3.587,2.648,2.648,0,0,1,3.682.165L5.9,28.825ZM16.814,13.8a2.775,2.775,0,0,0-2.695,2.616,2.4,2.4,0,0,0,2.54,2.46l19.628-.584a2.775,2.775,0,0,0,2.695-2.616,2.4,2.4,0,0,0-2.54-2.46ZM17.1,35.541a2.66,2.66,0,0,0-3.692-.056,2.505,2.505,0,0,0-.281,3.591c6.773,7.242,18.232,6.9,25.46-.758a2.471,2.471,0,0,0-.062-3.581,2.7,2.7,0,0,0-3.7.277C29.739,40.4,21.865,40.635,17.1,35.541Z" transform="translate(45.877 81.69) rotate(-150)" fill="#185adb" fill-rule="evenodd"/>
    </g>
  </g>
</svg>
