<svg xmlns="http://www.w3.org/2000/svg" xmlns:xlink="http://www.w3.org/1999/xlink" width="90" height="90" viewBox="0 0 90 90">
  <defs>
    <clipPath id="clip-path">
      <rect id="Rectangle_4949" data-name="Rectangle 4949" width="83.911" height="39.532" fill="#185adb"/>
    </clipPath>
  </defs>
  <g id="Group_8051" data-name="Group 8051" transform="translate(-497.185 -8185.185)">
    <g id="Group_7887" data-name="Group 7887" transform="translate(497.185 8185.185)">
      <g id="Rectangle_19" data-name="Rectangle 19" fill="#fff" stroke="#707070" stroke-width="1" opacity="0">
        <rect width="90" height="90" stroke="none"/>
        <rect x="0.5" y="0.5" width="89" height="89" fill="none"/>
      </g>
    </g>
    <g id="Group_7892" data-name="Group 7892" transform="translate(500.229 8210.42)">
      <g id="Group_7891" data-name="Group 7891" clip-path="url(#clip-path)">
        <path id="Path_19211" data-name="Path 19211" d="M330.2,87.314a1.556,1.556,0,0,1-1.5.776c-3.328-.011-6.657,0-9.985-.008-1.178,0-1.512-.344-1.528-1.508-.011-.791-.006-1.582,0-2.374.007-1.215.135-1.384,1.039-1.65.394-.538.683-.9.932-1.285a1.261,1.261,0,0,0,.226-.626c.015-2.674.075-5.35-.033-8.019a5.191,5.191,0,0,0-.914-2.129,3.507,3.507,0,0,1-.122-2.664c.134-.189.373-.433.561-.43.7.009.858-.478,1.1-.974a3.34,3.34,0,0,1,.785-1.032c.653-.57,1.374-.987,1.392-2.07.011-.67.993-.917,2.183-.721a1.057,1.057,0,0,1,1,1.177c-.029.541.241.776.627,1.1a9.144,9.144,0,0,1,1.569,1.828c.22.32.342.552.781.668a1.352,1.352,0,0,1,.87.881,3.729,3.729,0,0,1-.4,2.478,4.747,4.747,0,0,0-.857,2.766c.146,2.255.044,4.526.044,6.79,0,.458-.093.955.5,1.154.023.008.055.034.058.055.133.986,1.106,1.154,1.67,1.719Zm-4.233-11.9a2.3,2.3,0,0,0-2.28-2.3,2.345,2.345,0,0,0-2.3,2.3,2.3,2.3,0,0,0,2.3,2.282,2.247,2.247,0,0,0,2.281-2.28" transform="translate(-246.291 -48.558)" fill="#185adb"/>
        <path id="Path_19212" data-name="Path 19212" d="M61.369,33.394A7.844,7.844,0,0,1,53.7,40.371c-3.111.054-6.971-1.855-7.893-6.935H25.61a7.9,7.9,0,0,1-3.545,5.7,7.426,7.426,0,0,1-4.34,1.238,7.881,7.881,0,0,1-7.667-6.976H9.2c-2.212,0-4.424.013-6.636,0A2.384,2.384,0,0,1,.006,30.826q-.013-.942,0-1.884a2.246,2.246,0,0,1,1.642-2.284c.523-.169.572-.444.573-.89,0-1.938-.027-3.879.063-5.814a3.176,3.176,0,0,1,3.272-3.282c1.744-.086,3.495-.1,5.24-.046a1.338,1.338,0,0,0,1.54-1.017c1.705-4.455,3.506-8.873,5.23-13.321a1.553,1.553,0,0,1,1.689-1.16q11.305.05,22.611,0a1.726,1.726,0,0,1,1.652.929c3.08,4.929,6.2,9.833,9.281,14.76a1.519,1.519,0,0,0,1.208.806c3.2.383,6.388.811,9.586,1.18a1.579,1.579,0,0,1,1.51,1.022c.135.354.368.669.531,1.014a2.828,2.828,0,0,0,1.615,1.7,1.846,1.846,0,0,1,1.179,1.892c0,.652,0,1.3,0,1.908.11.081.15.137.2.141,2.164.191,2.823.9,2.825,3.055,0,.382,0,.765,0,1.147a2.428,2.428,0,0,1-2.674,2.7c-2.157.01-4.315,0-6.472,0h-.934m-48.085-.788a4.568,4.568,0,1,0,4.595-4.584,4.612,4.612,0,0,0-4.595,4.584m44.884-.05a4.572,4.572,0,1,0-4.492,4.606,4.633,4.633,0,0,0,4.492-4.606" transform="translate(0 -0.877)" fill="#185adb"/>
        <path id="Path_19213" data-name="Path 19213" d="M291.765,11.992c-.218.234-.454.662-.812.828a.93.93,0,0,1-1.238-.5,3.286,3.286,0,0,1-.225-.612q-1.517-4.921-3.029-9.844a3.787,3.787,0,0,1-.162-.633.983.983,0,0,1,.683-1.158.983.983,0,0,1,1.263.464,2.8,2.8,0,0,1,.247.6q1.526,4.962,3.042,9.926c.072.234.119.475.23.927" transform="translate(-222.304 0)" fill="#49a647"/>
        <path id="Path_19214" data-name="Path 19214" d="M277.573,49.154c.03,1.011-.818,1.539-1.538,1.142a1.972,1.972,0,0,1-.494-.423q-3.431-3.854-6.848-7.721c-.158-.179-.369-.424-.351-.62a1.642,1.642,0,0,1,.361-1.064,1.665,1.665,0,0,1,1.124-.108c.2.028.385.287.547.468q3.378,3.791,6.741,7.6a4.325,4.325,0,0,1,.458.729" transform="translate(-208.368 -31.307)" fill="#49a647"/>
        <path id="Path_19215" data-name="Path 19215" d="M320.736,27.726c-.13.431-.187.668-.272.9q-1.644,4.352-3.3,8.7c-.077.2-.135.485-.29.569-.353.193-.839.482-1.126.368-.337-.133-.551-.637-.753-1.014-.069-.129.038-.373.1-.549q1.7-4.505,3.417-9.005c.058-.151.119-.37.235-.417a2.4,2.4,0,0,1,1.221-.335c.319.07.547.548.763.787" transform="translate(-244.578 -20.906)" fill="#49a647"/>
      </g>
    </g>
  </g>
</svg>
