<svg id="Group_8057" data-name="Group 8057" xmlns="http://www.w3.org/2000/svg" xmlns:xlink="http://www.w3.org/1999/xlink" width="20" height="20" viewBox="0 0 20 20">
  <defs>
    <clipPath id="clip-path">
      <rect id="Rectangle_4988" data-name="Rectangle 4988" width="20" height="20" fill="#49A647"/>
    </clipPath>
  </defs>
  <g id="Group_7963" data-name="Group 7963" clip-path="url(#clip-path)">
    <path id="Path_19220" data-name="Path 19220" d="M10,20a10,10,0,1,1,10-9.992A10.018,10.018,0,0,1,10,20m0-9.286c-1.168,0-2.336,0-3.5,0a.7.7,0,0,0-.748.757,4.692,4.692,0,0,0,.047.6,4.25,4.25,0,0,0,8.452-.525.724.724,0,0,0-.809-.832H10M7.857,7.149A1.428,1.428,0,1,0,6.433,8.57,1.442,1.442,0,0,0,7.857,7.149M13.583,8.57a1.428,1.428,0,1,0-1.439-1.406A1.442,1.442,0,0,0,13.583,8.57" transform="translate(-0.001 0.001)" fill="#49A647"/>
  </g>
</svg>
