<svg xmlns="http://www.w3.org/2000/svg" width="90" height="90" viewBox="0 0 90 90">
  <g id="Group_8059" data-name="Group 8059" transform="translate(-609.184 -423.188)">
    <g id="Rectangle_17" data-name="Rectangle 17" transform="translate(609.184 423.188)" fill="#fff" stroke="#707070" stroke-width="1" opacity="0">
      <rect width="90" height="90" stroke="none"/>
      <rect x="0.5" y="0.5" width="89" height="89" fill="none"/>
    </g>
    <g id="Car_Repair_Shop" data-name="Car Repair Shop" transform="translate(614.138 424.846)">
      <path id="Path_82" data-name="Path 82" d="M77.54,33.056h3.343a3.343,3.343,0,1,0,0-6.685H72.921l-3.914-7.829A9.971,9.971,0,0,0,60.038,13H28.188a9.971,9.971,0,0,0-8.969,5.542l-3.914,7.829H7.343a3.343,3.343,0,0,0,0,6.685h3.343l-4.68,6.238A10.1,10.1,0,0,0,4,45.311v7.8a6.662,6.662,0,0,0,3.343,5.756v4.272a6.685,6.685,0,0,0,6.685,6.685h6.685A6.685,6.685,0,0,0,27.4,63.141V59.8H60.827v3.343a6.685,6.685,0,0,0,6.685,6.685H74.2a6.685,6.685,0,0,0,6.685-6.685V58.869a6.662,6.662,0,0,0,3.343-5.756v-7.8A10.079,10.079,0,0,0,82.22,39.3ZM70.855,43.085A5.014,5.014,0,1,1,65.841,48.1,5.014,5.014,0,0,1,70.855,43.085ZM20.045,31.719a3.634,3.634,0,0,0,.318-.511L25.2,21.534a3.343,3.343,0,0,1,2.988-1.849h31.85a3.343,3.343,0,0,1,2.988,1.849l4.837,9.674a3.632,3.632,0,0,0,.318.511l.11.144-.949.632a3.323,3.323,0,0,1-1.835.562H22.736a3.323,3.323,0,0,1-1.852-.562l-.949-.632ZM17.371,43.085A5.014,5.014,0,1,1,12.357,48.1,5.014,5.014,0,0,1,17.371,43.085Z" transform="translate(-4 17.354)" fill="#185adb"/>
      <path id="Path_83" data-name="Path 83" d="M23,18.476a10.3,10.3,0,0,1-10.753,3.806,10.18,10.18,0,0,1-6.669-5.4,1.03,1.03,0,0,1,.937-1.493h4.764a2.06,2.06,0,0,0,1.784-1.03l.593-1.03a2.06,2.06,0,0,0,0-2.06l-.593-1.03a2.06,2.06,0,0,0-1.784-1.03H6.515a1.03,1.03,0,0,1-.937-1.487,10.168,10.168,0,0,1,6.669-5.408A10.3,10.3,0,0,1,23,6.119H43.389a6.345,6.345,0,0,1,6.3,4.943,6.189,6.189,0,0,1-6.055,7.414H23" transform="translate(13.253 -2)" fill="#49a647"/>
    </g>
  </g>
</svg>
