<svg xmlns="http://www.w3.org/2000/svg" width="24" height="24" viewBox="0 0 24 24">
  <g id="Group_6399" data-name="Group 6399" transform="translate(-1730 -142)">
    <rect id="Rectangle_4209" data-name="Rectangle 4209" width="24" height="24" transform="translate(1730 142)" fill="#fff" opacity="0"/>
    <path id="logout_FILL1_wght400_GRAD0_opsz48" d="M121.5-822a1.439,1.439,0,0,1-1.05-.45,1.439,1.439,0,0,1-.45-1.05v-15a1.439,1.439,0,0,1,.45-1.05,1.439,1.439,0,0,1,1.05-.45h7.275v1.5H121.5v15h7.275v1.5Zm12.15-4.625-1.075-1.075,2.55-2.55h-8.75v-1.5h8.7l-2.55-2.55,1.075-1.075,4.4,4.4Z" transform="translate(1613 985)" fill="#fcfcfc"/>
  </g>
</svg>
