<svg xmlns="http://www.w3.org/2000/svg" width="195.686" height="63.125" viewBox="0 0 195.686 63.125">
  <g id="Group_9038" data-name="Group 9038" transform="translate(-1221 -1105)">
    <g id="Group_1411" data-name="Group 1411" transform="translate(1221 1113.169)">
      <path id="Path_8656" data-name="Path 8656" d="M85.374,109.134V80.086H75V74.172h27.784v5.914H92.434v29.048Z" transform="translate(-75 -73.575)" fill="#fff"/>
      <path id="Path_8657" data-name="Path 8657" d="M92.036,109.134V74.172h25.922v5.914H99.094v7.749h17.552v5.892H99.094v9.516h19.531v5.89Z" transform="translate(-60.945 -73.575)" fill="#fff"/>
      <path id="Path_8658" data-name="Path 8658" d="M108.425,109.134V74.172h7.06V89.7l14.261-15.525h9.492L126.073,87.789l13.88,21.345h-9.134l-9.61-16.408-5.724,5.842v10.566Z" transform="translate(-47.448 -73.575)" fill="#fff"/>
      <path id="Path_8659" data-name="Path 8659" d="M126.018,98.03l6.868-.667a8.382,8.382,0,0,0,2.517,5.081,7.6,7.6,0,0,0,5.114,1.621,7.866,7.866,0,0,0,5.14-1.442,4.3,4.3,0,0,0,1.73-3.375,3.187,3.187,0,0,0-.728-2.112,5.836,5.836,0,0,0-2.539-1.514q-1.239-.43-5.652-1.527-5.678-1.406-7.966-3.458a9.088,9.088,0,0,1-3.219-7.034,8.993,8.993,0,0,1,1.514-5,9.491,9.491,0,0,1,4.365-3.541,17.481,17.481,0,0,1,6.879-1.216q6.584,0,9.91,2.885a10.186,10.186,0,0,1,3.493,7.7l-7.058.311a6,6,0,0,0-1.944-3.876,7.11,7.11,0,0,0-4.471-1.181,8.053,8.053,0,0,0-4.818,1.266,2.543,2.543,0,0,0-1.12,2.168,2.686,2.686,0,0,0,1.048,2.124q1.336,1.123,6.487,2.338a34.247,34.247,0,0,1,7.62,2.515,9.828,9.828,0,0,1,3.865,3.554,11.011,11.011,0,0,1-.275,11.2,10.005,10.005,0,0,1-4.722,3.9,19.807,19.807,0,0,1-7.607,1.275q-6.631,0-10.183-3.064T126.018,98.03Z" transform="translate(-32.923 -73.849)" fill="#fff"/>
      <path id="Path_8660" data-name="Path 8660" d="M143.624,74.178h7.058V93.113a39.422,39.422,0,0,0,.262,5.844A5.671,5.671,0,0,0,153.1,102.4a7.517,7.517,0,0,0,4.663,1.3,7.117,7.117,0,0,0,4.532-1.229,4.855,4.855,0,0,0,1.835-3.016,39.264,39.264,0,0,0,.311-5.938V74.178H171.5V92.541a47.289,47.289,0,0,1-.571,8.9,9.845,9.845,0,0,1-2.111,4.388,10.635,10.635,0,0,1-4.114,2.85,17.886,17.886,0,0,1-6.726,1.063,19.367,19.367,0,0,1-7.6-1.157,10.879,10.879,0,0,1-4.09-3.005,9.637,9.637,0,0,1-1.979-3.876,42.4,42.4,0,0,1-.691-8.871Z" transform="translate(-18.397 -73.57)" fill="#fff"/>
      <path id="Path_8661" data-name="Path 8661" d="M161.067,109.14V74.178h6.87l14.309,23.348V74.178H188.8V109.14H181.72l-14.094-22.8v22.8Z" transform="translate(-4.008 -73.57)" fill="#fff"/>
    </g>
    <g id="Group_1412" data-name="Group 1412" transform="translate(1221 1158.05)">
      <path id="Path_8662" data-name="Path 8662" d="M81.579,105.905l1.907.6a4.269,4.269,0,0,1-1.458,2.369,4.592,4.592,0,0,1-5.779-.551A5.07,5.07,0,0,1,75,104.7a5.328,5.328,0,0,1,1.257-3.778,4.307,4.307,0,0,1,3.3-1.345,4.052,4.052,0,0,1,2.9,1.057,3.821,3.821,0,0,1,1,1.795l-1.946.464a2.011,2.011,0,0,0-2.053-1.634,2.212,2.212,0,0,0-1.758.778,3.8,3.8,0,0,0-.675,2.517,4.094,4.094,0,0,0,.663,2.632,2.161,2.161,0,0,0,1.728.785,1.97,1.97,0,0,0,1.349-.5A2.9,2.9,0,0,0,81.579,105.905Z" transform="translate(-75 -99.579)" fill="#fff"/>
      <path id="Path_8663" data-name="Path 8663" d="M80.484,99.669H82.45v5.277a10.738,10.738,0,0,0,.074,1.628,1.578,1.578,0,0,0,.6.961,2.1,2.1,0,0,0,1.3.362,1.973,1.973,0,0,0,1.262-.344,1.344,1.344,0,0,0,.512-.841,10.964,10.964,0,0,0,.087-1.654V99.669h1.966v5.118a13.235,13.235,0,0,1-.159,2.478,2.772,2.772,0,0,1-.588,1.223,2.981,2.981,0,0,1-1.148.793,4.964,4.964,0,0,1-1.874.3,5.407,5.407,0,0,1-2.116-.322,3.035,3.035,0,0,1-1.14-.837,2.688,2.688,0,0,1-.551-1.081,11.888,11.888,0,0,1-.192-2.471Z" transform="translate(-70.349 -99.503)" fill="#fff"/>
      <path id="Path_8664" data-name="Path 8664" d="M85.643,109.374V99.712h1.966v8.021H92.5v1.641Z" transform="translate(-65.973 -99.466)" fill="#fff"/>
      <path id="Path_8665" data-name="Path 8665" d="M91.689,109.411v-8.093H88.8V99.669H96.54v1.649H93.655v8.093Z" transform="translate(-63.297 -99.503)" fill="#fff"/>
      <path id="Path_8666" data-name="Path 8666" d="M93.542,109.411V99.669H95.51v9.742Z" transform="translate(-59.273 -99.503)" fill="#fff"/>
      <path id="Path_8667" data-name="Path 8667" d="M98.645,109.411l-3.482-9.742H97.3l2.465,7.21,2.386-7.21h2.087l-3.489,9.742Z" transform="translate(-58.319 -99.503)" fill="#fff"/>
      <path id="Path_8668" data-name="Path 8668" d="M109.29,109.411h-2.14l-.85-2.212h-3.894l-.8,2.212H99.515l3.794-9.742h2.081Zm-3.621-3.853-1.344-3.615-1.316,3.615Z" transform="translate(-54.721 -99.503)" fill="#fff"/>
      <path id="Path_8669" data-name="Path 8669" d="M107.14,109.411v-8.093h-2.891V99.669h7.742v1.649h-2.885v8.093Z" transform="translate(-50.798 -99.503)" fill="#fff"/>
      <path id="Path_8670" data-name="Path 8670" d="M108.993,109.411V99.669h1.968v9.742Z" transform="translate(-46.85 -99.503)" fill="#fff"/>
      <path id="Path_8671" data-name="Path 8671" d="M111.082,109.411V99.669H113l3.987,6.506V99.669h1.828v9.742h-1.974l-3.927-6.352v6.352Z" transform="translate(-45.144 -99.503)" fill="#fff"/>
      <path id="Path_8672" data-name="Path 8672" d="M121.028,105.905v-1.641h4.24v3.881a5.326,5.326,0,0,1-1.791,1.053,6.526,6.526,0,0,1-2.375.455,5.317,5.317,0,0,1-2.665-.641,4.072,4.072,0,0,1-1.708-1.833,5.9,5.9,0,0,1-.573-2.595,5.616,5.616,0,0,1,.638-2.706,4.3,4.3,0,0,1,1.869-1.813,5.039,5.039,0,0,1,2.332-.486,4.651,4.651,0,0,1,2.835.761,3.438,3.438,0,0,1,1.312,2.1l-1.953.366a2.063,2.063,0,0,0-.774-1.133,2.339,2.339,0,0,0-1.419-.416,2.662,2.662,0,0,0-2.05.817,3.439,3.439,0,0,0-.761,2.427,3.814,3.814,0,0,0,.771,2.6,2.575,2.575,0,0,0,2.02.869,3.372,3.372,0,0,0,1.24-.244,4.212,4.212,0,0,0,1.066-.588v-1.236Z" transform="translate(-40.952 -99.579)" fill="#fff"/>
      <path id="Path_8673" data-name="Path 8673" d="M127.248,109.411v-8.093h-2.892V99.669H132.1v1.649h-2.885v8.093Z" transform="translate(-34.16 -99.503)" fill="#fff"/>
      <path id="Path_8674" data-name="Path 8674" d="M129.1,109.411V99.669h7.224v1.649h-5.256v2.159h4.89v1.643h-4.89v2.65h5.443v1.641Z" transform="translate(-30.232 -99.503)" fill="#fff"/>
      <path id="Path_8675" data-name="Path 8675" d="M140.513,105.905l1.907.6a4.269,4.269,0,0,1-1.458,2.369,4.592,4.592,0,0,1-5.779-.551,5.078,5.078,0,0,1-1.249-3.626,5.329,5.329,0,0,1,1.257-3.778,4.31,4.31,0,0,1,3.3-1.345,4.049,4.049,0,0,1,2.9,1.057,3.838,3.838,0,0,1,1,1.795l-1.948.464a2.011,2.011,0,0,0-2.053-1.634,2.212,2.212,0,0,0-1.758.778,3.809,3.809,0,0,0-.675,2.517,4.082,4.082,0,0,0,.665,2.632,2.156,2.156,0,0,0,1.728.785,1.97,1.97,0,0,0,1.349-.5A2.9,2.9,0,0,0,140.513,105.905Z" transform="translate(-26.24 -99.579)" fill="#fff"/>
      <path id="Path_8676" data-name="Path 8676" d="M139.418,109.411V99.669h1.968V103.5h3.853V99.669h1.966v9.742H145.24v-4.26h-3.853v4.26Z" transform="translate(-21.697 -99.503)" fill="#fff"/>
      <path id="Path_8677" data-name="Path 8677" d="M144.657,109.411V99.669h1.915l3.987,6.506V99.669h1.828v9.742h-1.974l-3.927-6.352v6.352Z" transform="translate(-17.362 -99.503)" fill="#fff"/>
      <path id="Path_8678" data-name="Path 8678" d="M149.732,104.676a6.181,6.181,0,0,1,.445-2.5,4.591,4.591,0,0,1,.906-1.336,3.811,3.811,0,0,1,1.26-.876,5.345,5.345,0,0,1,2.1-.386,4.57,4.57,0,0,1,3.445,1.336,5.966,5.966,0,0,1,.011,7.406,4.538,4.538,0,0,1-3.43,1.333,4.584,4.584,0,0,1-3.454-1.325A5.029,5.029,0,0,1,149.732,104.676Zm2.026-.067a3.645,3.645,0,0,0,.765,2.508,2.623,2.623,0,0,0,3.87.007,3.715,3.715,0,0,0,.756-2.541,3.662,3.662,0,0,0-.736-2.5,2.721,2.721,0,0,0-3.911.009A3.687,3.687,0,0,0,151.758,104.61Z" transform="translate(-13.178 -99.579)" fill="#fff"/>
      <path id="Path_8679" data-name="Path 8679" d="M155.737,109.374V99.712H157.7v8.021H162.6v1.641Z" transform="translate(-8.186 -99.466)" fill="#fff"/>
      <path id="Path_8680" data-name="Path 8680" d="M159.991,104.676a6.214,6.214,0,0,1,.444-2.5,4.634,4.634,0,0,1,.907-1.336,3.81,3.81,0,0,1,1.26-.876,5.345,5.345,0,0,1,2.1-.386,4.57,4.57,0,0,1,3.445,1.336,5.966,5.966,0,0,1,.011,7.406,5.123,5.123,0,0,1-6.884.007A5.029,5.029,0,0,1,159.991,104.676Zm2.026-.067a3.645,3.645,0,0,0,.765,2.508,2.623,2.623,0,0,0,3.87.007,3.724,3.724,0,0,0,.754-2.541,3.662,3.662,0,0,0-.734-2.5,2.721,2.721,0,0,0-3.911.009A3.678,3.678,0,0,0,162.017,104.61Z" transform="translate(-4.92 -99.579)" fill="#fff"/>
      <path id="Path_8681" data-name="Path 8681" d="M170.531,105.905v-1.641h4.24v3.881a5.327,5.327,0,0,1-1.791,1.053,6.519,6.519,0,0,1-2.375.455,5.317,5.317,0,0,1-2.665-.641,4.073,4.073,0,0,1-1.708-1.833,5.929,5.929,0,0,1-.573-2.595,5.616,5.616,0,0,1,.639-2.706,4.3,4.3,0,0,1,1.867-1.813,5.039,5.039,0,0,1,2.332-.486,4.648,4.648,0,0,1,2.835.761,3.438,3.438,0,0,1,1.312,2.1l-1.954.366a2.063,2.063,0,0,0-.774-1.133,2.34,2.34,0,0,0-1.419-.416,2.662,2.662,0,0,0-2.05.817,3.44,3.44,0,0,0-.761,2.427,3.814,3.814,0,0,0,.771,2.6,2.575,2.575,0,0,0,2.02.869,3.372,3.372,0,0,0,1.24-.244,4.214,4.214,0,0,0,1.066-.588v-1.236Z" transform="translate(-0.113 -99.579)" fill="#fff"/>
      <path id="Path_8682" data-name="Path 8682" d="M174.714,109.411v-4.1l-3.569-5.642h2.307l2.292,3.855,2.247-3.855h2.266l-3.582,5.655v4.086Z" transform="translate(4.54 -99.503)" fill="#fff"/>
    </g>
    <g id="Group_1414" data-name="Group 1414" transform="translate(1407.911 1105)">
      <path id="Path_8683" data-name="Path 8683" d="M181.634,69.429a4.389,4.389,0,1,0,4.36,4.417v-.055A4.361,4.361,0,0,0,181.634,69.429Zm0,8.189a3.829,3.829,0,1,1,3.8-3.857l0,.03A3.829,3.829,0,0,1,181.634,77.618Z" transform="translate(-177.219 -69.429)" fill="#fff"/>
      <g id="Group_1413" data-name="Group 1413" transform="translate(2.961 2.46)">
        <path id="Path_8684" data-name="Path 8684" d="M178.821,74.617V70.76h1.71a2.292,2.292,0,0,1,.784.1.854.854,0,0,1,.429.368,1.094,1.094,0,0,1,.161.58.963.963,0,0,1-.266.693,1.341,1.341,0,0,1-.821.359,1.278,1.278,0,0,1,.309.192,2.559,2.559,0,0,1,.423.512l.671,1.05h-.641l-.51-.8c-.15-.231-.273-.408-.37-.532a1.148,1.148,0,0,0-.259-.257.784.784,0,0,0-.233-.1,1.649,1.649,0,0,0-.285-.018h-.591v1.713Zm.51-2.155h1.1a1.662,1.662,0,0,0,.549-.072.584.584,0,0,0,.3-.231.632.632,0,0,0,.1-.347.575.575,0,0,0-.2-.449.928.928,0,0,0-.628-.176h-1.22Z" transform="translate(-178.821 -70.76)" fill="#fff"/>
      </g>
    </g>
  </g>
</svg>
