<svg xmlns="http://www.w3.org/2000/svg" xmlns:xlink="http://www.w3.org/1999/xlink" width="88" height="88" viewBox="0 0 88 88">
  <defs>
    <clipPath id="clip-path">
      <rect id="Rectangle_4945" data-name="Rectangle 4945" width="68.955" height="79.264" fill="#185ADB"/>
    </clipPath>
  </defs>
  <g id="Group_8044" data-name="Group 8044" transform="translate(-515.845 -6316.845)">
    <g id="Rectangle_2" data-name="Rectangle 2" transform="translate(515.845 6316.845)" fill="#fff" stroke="#707070" stroke-width="1" opacity="0">
      <rect width="88" height="88" stroke="none"/>
      <rect x="0.5" y="0.5" width="87" height="87" fill="none"/>
    </g>
    <g id="Group_7873" data-name="Group 7873" transform="translate(525.368 6321.373)">
      <g id="Group_7872" data-name="Group 7872" clip-path="url(#clip-path)">
        <path id="Path_19189" data-name="Path 19189" d="M14.169,111.353a10.211,10.211,0,0,0,7.237,3.379c4.067.127,8.143.039,12.205.248a5.975,5.975,0,0,1,3.783,1.3,4.3,4.3,0,0,1,.85,3.741,4.526,4.526,0,0,1-3.128,2.566,96.118,96.118,0,0,1-15.778-.18c-8.6-1.084-14.538-7.309-16.066-15.815Q1.719,97.935.161,89.277A9.628,9.628,0,0,1,0,87.687,3.89,3.89,0,0,1,3.224,83.5,3.769,3.769,0,0,1,7.6,86.445c.8,3.3,1.356,6.657,1.987,10,.582,3.078,1.11,6.165,1.7,9.242.145.76.431,1.493.721,2.469l3.287-3.066,1.614,2.9L29.969,94.61l1.018,3.281c3.564,0,7.149.059,10.731-.023a6.62,6.62,0,0,1,5.157,2.143c6.662,6.738,13.388,13.413,20.08,20.121,2.478,2.484,2.662,5.476.5,7.57-2.134,2.071-4.975,1.877-7.433-.568-4.969-4.941-9.884-9.935-14.9-14.823a4.408,4.408,0,0,0-2.742-1.135q-8.705-.153-17.415-.026c-3.008.044-5.695-.552-7.675-2.719l-3.121,2.92" transform="translate(0 -49.86)" fill="#185ADB"/>
        <path id="Path_19190" data-name="Path 19190" d="M67.332,66.738c-7.523,1.3-14.927,3.249-22.689,2.644.759,1.538-.69,2.6-1.9,3.8-3.46,3.433-6.9,6.889-10.348,10.33-.458.457-.954.876-1.636,1.5-1.423-7.109-2.8-13.943-4.152-20.784a42.9,42.9,0,0,1-.844-5.122,7.532,7.532,0,0,1,4.479-7.8c3.171-1.584,6.523-.91,9.339,1.241,3.119,2.383,6.465,4.474,9.776,6.592a3.456,3.456,0,0,0,2.108.192c3.439-.444,6.873-.937,10.3-1.458,4.039-.613,5.8.418,7.194,4.477.9-2.413,1.746-4.648,2.572-6.89.436-1.183,1.127-2.114,2.508-1.64,1.52.522,1.385,1.756.925,2.99Q72.135,64.4,69.3,71.982c-.435,1.169-1.095,2.146-2.49,1.647-1.46-.522-1.463-1.687-.939-2.973.551-1.355,1.025-2.741,1.46-3.917" transform="translate(-15.375 -30.134)" fill="#185ADB"/>
        <path id="Path_19191" data-name="Path 19191" d="M39.585,9.16a9.113,9.113,0,0,1-9.012,9.287,9.208,9.208,0,0,1-9.439-9.11A9.314,9.314,0,0,1,30.4,0,9.217,9.217,0,0,1,39.585,9.16" transform="translate(-12.627 -0.001)" fill="#185ADB"/>
        <path id="Path_19192" data-name="Path 19192" d="M81.443,45.534c-.134.769-.269,1.538-.447,2.556l3.124.811.807-2.23a3.792,3.792,0,0,1,.567,5.8C83.171,55.23,77.8,56.047,74.8,54.1c-1.326-.862-2.645-1.734-4.245-2.784l10.471-6.188.417.409" transform="translate(-42.156 -26.961)" fill="#185ADB"/>
        <path id="Path_19193" data-name="Path 19193" d="M7.076,41.868,8.884,39.6l6.355,6.322-1.588,2.65-6.576-6.7" transform="translate(-4.228 -23.661)" fill="#185ADB"/>
        <path id="Path_19194" data-name="Path 19194" d="M100.218,31.92h0A.76.76,0,0,1,99.661,31l2.68-10.95a.759.759,0,0,1,1.475.361l-2.68,10.951a.759.759,0,0,1-.918.557" transform="translate(-59.532 -11.634)" fill="#185ADB"/>
      </g>
    </g>
  </g>
</svg>
