<svg xmlns="http://www.w3.org/2000/svg" xmlns:xlink="http://www.w3.org/1999/xlink" width="90" height="90" viewBox="0 0 90 90">
  <defs>
    <clipPath id="clip-path">
      <rect id="Rectangle_4948" data-name="Rectangle 4948" width="70.813" height="85.694" fill="#185adb"/>
    </clipPath>
  </defs>
  <g id="Group_7988" data-name="Group 7988" transform="translate(-496.472 -7952.472)">
    <g id="Group_7887" data-name="Group 7887" transform="translate(496.472 7952.472)">
      <g id="Rectangle_19" data-name="Rectangle 19" transform="translate(0 0)" fill="#fff" stroke="#707070" stroke-width="1" opacity="0">
        <rect width="90" height="90" stroke="none"/>
        <rect x="0.5" y="0.5" width="89" height="89" fill="none"/>
      </g>
    </g>
    <g id="Group_7889" data-name="Group 7889" transform="translate(506.013 7954.623)">
      <g id="Group_7888" data-name="Group 7888" transform="translate(0 0)" clip-path="url(#clip-path)">
        <path id="Path_19201" data-name="Path 19201" d="M31.015,39.835A12.151,12.151,0,0,1,43.625,27.6,12.114,12.114,0,0,1,55.857,40.206a12.423,12.423,0,1,1-24.843-.37" transform="translate(-6.428 -5.72)" fill="#185adb"/>
        <path id="Path_19202" data-name="Path 19202" d="M51.187,58.12c-3.088,2.914-5.6,6.172-11.143,4.8-3.089-.766-7.124.324-10.171,1.765C24.978,67,20.55,70.293,15.811,73.246c1.9-.329,3.954-.643,5.988-1.046,2.679-.53,4.8.094,5.488,2.961.716,2.981-.777,4.775-3.649,5.459-4.584,1.092-9.148,2.343-13.793,3.058a5.866,5.866,0,0,1-4.66-1.729,4.8,4.8,0,0,1-.158-4.6A186.249,186.249,0,0,1,19.671,60.007c3.29-3.3,7.8-3.725,12.376-1.325,3.788,1.987,7.831,1.608,11.837.1,2.238-.84,4.63-1.274,6.951-1.891q.176.611.351,1.224" transform="translate(-0.936 -11.793)" fill="#185adb"/>
        <path id="Path_19203" data-name="Path 19203" d="M71.77,73.6,61.087,68.388,69.5,61.047c4.531,6.025,9.195,11.618,13.117,17.69,2.006,3.105-1.259,6.721-4.991,5.949-4.62-.954-9.2-2.089-13.8-3.167-2.847-.668-4.451-2.361-3.8-5.38.685-3.159,3.024-3.563,5.784-3.027,1.941.377,3.9.685,5.843,1.023.038-.178.075-.358.113-.536" transform="translate(-12.412 -12.653)" fill="#185adb"/>
        <path id="Path_19204" data-name="Path 19204" d="M55.547,88.237l3.66,1.062c-1.525,8.94-8.52,14.925-16.89,14.642a16.355,16.355,0,0,1-15.926-14.7l3.392-1.162c1.806,6.948,5.741,11.569,13.13,11.49,7.022-.076,10.829-4.5,12.634-11.336" transform="translate(-5.47 -18.257)" fill="#185adb"/>
        <path id="Path_19206" data-name="Path 19206" d="M33.474,74.511l-3.1-2.292c7.594-8.665,18.854-8.676,26.3-.057L53.446,74.14c-8.387-5.749-12.529-5.682-19.972.37" transform="translate(-6.297 -13.62)" fill="#185adb"/>
        <path id="Path_19207" data-name="Path 19207" d="M10.046,13.331l2.014-2.4,14.432,12.79-.828,1.028L10.046,13.331" transform="translate(-2.082 -2.266)" fill="#49a647"/>
        <path id="Path_19208" data-name="Path 19208" d="M29.789.31,36.71,17.978l-1.187.5c-2.666-5.27-5.395-10.51-7.908-15.851C27.345,2.052,28.324.89,28.723,0l1.065.31" transform="translate(-5.714 0)" fill="#49a647"/>
        <path id="Path_19209" data-name="Path 19209" d="M0,30.517c.729-.568,1.635-1.755,2.161-1.607,5.671,1.6,11.282,3.414,16.909,5.169l-.29,1.192L.547,31.549,0,30.517" transform="translate(0 -5.99)" fill="#49a647"/>
        <path id="Path_19210" data-name="Path 19210" d="M51.317,85.424A5.725,5.725,0,1,1,45.592,79.7a5.725,5.725,0,0,1,5.725,5.725" transform="translate(-8.263 -16.519)" fill="#185adb"/>
      </g>
    </g>
  </g>
</svg>
