<svg xmlns="http://www.w3.org/2000/svg" width="24" height="24" viewBox="0 0 24 24">
  <g id="Group_6398" data-name="Group 6398" transform="translate(-1730 -142)">
    <rect id="Rectangle_4209" data-name="Rectangle 4209" width="24" height="24" transform="translate(1730 142)" fill="#fff" opacity="0"/>
    <path id="notifications_FILL0_wght400_GRAD0_opsz48" d="M160-863v-1.5h2.1v-7.65a6.035,6.035,0,0,1,1.237-3.737,5.333,5.333,0,0,1,3.263-2.063v-.725a1.228,1.228,0,0,1,.412-.95A1.417,1.417,0,0,1,168-880a1.417,1.417,0,0,1,.988.375,1.228,1.228,0,0,1,.413.95v.725a5.385,5.385,0,0,1,3.275,2.063,6,6,0,0,1,1.25,3.737v7.65H176v1.5ZM168-870.375ZM168-860a1.939,1.939,0,0,1-1.4-.588A1.906,1.906,0,0,1,166-862h4a1.926,1.926,0,0,1-.587,1.412A1.926,1.926,0,0,1,168-860Zm-4.4-4.5h8.825v-7.65a4.333,4.333,0,0,0-1.275-3.15,4.208,4.208,0,0,0-3.125-1.3,4.249,4.249,0,0,0-3.137,1.3,4.311,4.311,0,0,0-1.288,3.15Z" transform="translate(1574 1024)" fill="#fcfcfc"/>
  </g>
</svg>
