<svg xmlns="http://www.w3.org/2000/svg" width="48" height="48" viewBox="0 0 48 48">
  <g id="Group_8070" data-name="Group 8070" transform="translate(-176 -2178)">
    <circle id="Ellipse_159" data-name="Ellipse 159" cx="24" cy="24" r="24" transform="translate(176 2178)" fill="rgba(0,170,255,0.1)"/>
    <g id="Group_8068" data-name="Group 8068" transform="translate(-103.655 1522.345)">
      <g id="Rectangle_19" data-name="Rectangle 19" transform="translate(288.655 664.655)" fill="#fff" stroke="#707070" stroke-width="1" opacity="0">
        <rect width="30" height="30" stroke="none"/>
        <rect x="0.5" y="0.5" width="29" height="29" fill="none"/>
      </g>
      <g id="Group_42" data-name="Group 42" transform="translate(289.855 667.056)">
        <path id="distance_x2C_-space_x2C_-vehicles_x2C_-cars_x2C_-parking" d="M666.146,951.632v1.624a1.218,1.218,0,0,1-1.218,1.218h-2.841a1.218,1.218,0,0,1-1.218-1.218v-1.624Zm7.306,0h5.277v1.624a1.218,1.218,0,0,1-1.218,1.218H674.67a1.218,1.218,0,0,1-1.218-1.218ZM661.8,950.008l-1.409-3.171a.812.812,0,0,0-.742-.482H656v-2.841a.812.812,0,0,1,.812-.812h6.037l-1.251-2.71a1.624,1.624,0,0,0-1.474-.943h-3.312a.812.812,0,0,1,0-1.624h3.312a3.247,3.247,0,0,1,2.948,1.886l1.565,3.39h1l1.527-.382a.812.812,0,1,1,.394,1.575l-.949.237a2.883,2.883,0,0,1,.309.759l.37,1.478a2.433,2.433,0,0,1,.073.591v1.424a1.624,1.624,0,0,1-1.624,1.624H661.8Zm-1.777,0h-3.216A.812.812,0,0,1,656,949.2v-1.218h3.125Zm3.685-2.03a1.218,1.218,0,1,0-1.218-1.218A1.218,1.218,0,0,0,663.711,947.978Zm16.236-1.623a.812.812,0,0,0-.742.482l-1.409,3.171h-3.937a1.623,1.623,0,0,1-1.623-1.624v-1.424a2.437,2.437,0,0,1,.073-.591l.37-1.478a2.891,2.891,0,0,1,.309-.759l-.948-.237a.812.812,0,0,1,.394-1.575l1.527.382h1l1.565-3.39a3.247,3.247,0,0,1,2.948-1.886h3.313a.812.812,0,0,1,0,1.624h-3.313a1.623,1.623,0,0,0-1.474.943l-1.251,2.71h6.038a.812.812,0,0,1,.812.812c0,.224,0,1.533,0,2.841Zm-4.059,1.623a1.218,1.218,0,1,0-1.218-1.218A1.218,1.218,0,0,0,675.888,947.978Zm7.712,0V949.2a.812.812,0,0,1-.812.812h-3.216l.9-2.03Zm-8.454-16.236-.238-.238a.812.812,0,0,1,1.148-1.148l1.624,1.624a.812.812,0,0,1,0,1.148l-1.624,1.624a.812.812,0,0,1-1.148-1.148l.238-.238H664.453l.238.238a.812.812,0,0,1-1.148,1.148l-1.623-1.624a.812.812,0,0,1,0-1.148l1.623-1.624a.812.812,0,0,1,1.148,1.148l-.238.238Z" transform="translate(-655.999 -930.119)" fill="#185ADB"/>
        <path id="distance_x2C_-space_x2C_-vehicles_x2C_-cars_x2C_-parking-2" data-name="distance_x2C_-space_x2C_-vehicles_x2C_-cars_x2C_-parking" d="M686.016,931.743l-.238-.238a.812.812,0,0,1,1.148-1.148l1.624,1.624a.812.812,0,0,1,0,1.148l-1.624,1.624a.812.812,0,0,1-1.148-1.148l.238-.238H675.324l.238.238a.812.812,0,0,1-1.148,1.148l-1.624-1.624a.812.812,0,0,1,0-1.148l1.624-1.624a.812.812,0,0,1,1.148,1.148l-.238.238Z" transform="translate(-666.869 -930.119)" fill="#185ADB"/>
      </g>
    </g>
  </g>
</svg>
