<svg xmlns="http://www.w3.org/2000/svg" width="15.238" height="20" viewBox="0 0 15.238 20">
  <path id="lock_FILL0_wght400_GRAD0_opsz48" d="M161.429-900a1.375,1.375,0,0,1-1.009-.42,1.376,1.376,0,0,1-.42-1.009v-10.333a1.376,1.376,0,0,1,.42-1.009,1.375,1.375,0,0,1,1.009-.42H163.1v-2.286a4.359,4.359,0,0,1,1.324-3.2,4.364,4.364,0,0,1,3.2-1.323,4.355,4.355,0,0,1,3.2,1.323,4.363,4.363,0,0,1,1.321,3.2v2.286h1.667a1.376,1.376,0,0,1,1.009.42,1.376,1.376,0,0,1,.42,1.009v10.333a1.376,1.376,0,0,1-.42,1.009,1.376,1.376,0,0,1-1.009.42Zm0-1.429H173.81v-10.333H161.429Zm6.194-3.333a1.781,1.781,0,0,0,1.294-.525,1.7,1.7,0,0,0,.536-1.261,1.867,1.867,0,0,0-.54-1.3,1.706,1.706,0,0,0-1.3-.583,1.694,1.694,0,0,0-1.294.583,1.888,1.888,0,0,0-.536,1.31,1.682,1.682,0,0,0,.54,1.25A1.8,1.8,0,0,0,167.623-904.762Zm-3.1-8.429h6.19v-2.286a2.986,2.986,0,0,0-.9-2.192,2.981,2.981,0,0,0-2.19-.9,2.99,2.99,0,0,0-2.193.9,2.982,2.982,0,0,0-.9,2.192Zm-3.1,11.762v0Z" transform="translate(-160 920)" fill="#49A647"/>
</svg>
