<svg xmlns="http://www.w3.org/2000/svg" width="24" height="24" viewBox="0 0 24 24">
  <g id="Group_7682" data-name="Group 7682" transform="translate(24275 7671)">
    <rect id="Rectangle_4827" data-name="Rectangle 4827" width="24" height="24" transform="translate(-24275 -7671)" fill="#fff" opacity="0"/>
    <path id="manage_accounts_FILL0_wght300_GRAD0_opsz24" d="M107.327-765.468a3.292,3.292,0,0,1-2.415-1,3.292,3.292,0,0,1-1-2.415,3.292,3.292,0,0,1,1-2.415,3.293,3.293,0,0,1,2.415-1,3.293,3.293,0,0,1,2.415,1,3.292,3.292,0,0,1,1,2.415,3.292,3.292,0,0,1-1,2.415,3.292,3.292,0,0,1-2.415,1ZM100-758.029V-760.2a2.465,2.465,0,0,1,.378-1.34,2.509,2.509,0,0,1,1.054-.929,15.482,15.482,0,0,1,2.63-1.013,11.837,11.837,0,0,1,3.265-.407h.286a1.2,1.2,0,0,1,.255.03,5.25,5.25,0,0,0-.245.7q-.1.359-.161.731h-.135a10.461,10.461,0,0,0-2.987.388,12.81,12.81,0,0,0-2.235.874,1.274,1.274,0,0,0-.486.417.987.987,0,0,0-.153.545v.706h6.154a5.739,5.739,0,0,0,.283.755,5.687,5.687,0,0,0,.382.71Zm12.287.723-.218-1.3a3.387,3.387,0,0,1-.657-.271,3.019,3.019,0,0,1-.586-.419l-1.238.43-.7-1.182,1.011-.827a2.791,2.791,0,0,1-.105-.748,2.791,2.791,0,0,1,.105-.748l-1-.845.7-1.182,1.229.44a2.608,2.608,0,0,1,.581-.414,3.732,3.732,0,0,1,.662-.266l.218-1.3h1.39l.209,1.3a3.408,3.408,0,0,1,.662.273,2.557,2.557,0,0,1,.581.437l1.229-.47.7,1.212-1,.845a2.552,2.552,0,0,1,.105.734,2.522,2.522,0,0,1-.105.731l1.011.827-.7,1.182-1.238-.43a3.019,3.019,0,0,1-.586.419,3.386,3.386,0,0,1-.657.271l-.209,1.3Zm.686-2.452a1.789,1.789,0,0,0,1.313-.547,1.793,1.793,0,0,0,.546-1.314,1.789,1.789,0,0,0-.547-1.313,1.793,1.793,0,0,0-1.314-.546,1.789,1.789,0,0,0-1.313.547,1.793,1.793,0,0,0-.546,1.314,1.789,1.789,0,0,0,.547,1.313A1.793,1.793,0,0,0,112.974-759.758Zm-5.647-7.176a1.881,1.881,0,0,0,1.38-.574,1.881,1.881,0,0,0,.574-1.38,1.881,1.881,0,0,0-.574-1.38,1.881,1.881,0,0,0-1.38-.574,1.881,1.881,0,0,0-1.38.574,1.881,1.881,0,0,0-.574,1.38,1.881,1.881,0,0,0,.574,1.38A1.881,1.881,0,0,0,107.327-766.934ZM107.327-768.887ZM107.62-759.495Z" transform="translate(-24371.5 -6894.82)" fill="#fff"/>
  </g>
</svg>
