<svg xmlns="http://www.w3.org/2000/svg" width="16.154" height="16.154" viewBox="0 0 16.154 16.154">
  <path id="search_FILL0_wght300_GRAD0_opsz48" d="M151.528-809.077l-6.1-6.1a4.986,4.986,0,0,1-1.635.956,5.672,5.672,0,0,1-1.934.336,5.512,5.512,0,0,1-4.05-1.656,5.468,5.468,0,0,1-1.657-4.017,5.475,5.475,0,0,1,1.656-4.018,5.473,5.473,0,0,1,4.022-1.658,5.478,5.478,0,0,1,4.023,1.657,5.471,5.471,0,0,1,1.657,4.018,5.614,5.614,0,0,1-.338,1.922,5.517,5.517,0,0,1-.978,1.694l6.111,6.073Zm-9.68-5.87a4.43,4.43,0,0,0,3.262-1.342,4.454,4.454,0,0,0,1.337-3.267,4.454,4.454,0,0,0-1.337-3.267,4.43,4.43,0,0,0-3.262-1.342,4.472,4.472,0,0,0-3.282,1.342,4.44,4.44,0,0,0-1.345,3.267,4.44,4.44,0,0,0,1.345,3.267A4.472,4.472,0,0,0,141.849-814.947Z" transform="translate(-136.155 825.23)" fill="#999fa5"/>
</svg>
