<svg xmlns="http://www.w3.org/2000/svg" width="20" height="20" viewBox="0 0 20 20">
  <path id="settings_FILL0_wght400_GRAD0_opszNaN" d="M87.7-860l-.5-3.15a6.71,6.71,0,0,1-1-.475,6.861,6.861,0,0,1-.925-.625l-2.95,1.35L80-867l2.7-1.975a2.973,2.973,0,0,1-.062-.513q-.013-.287-.013-.512t.013-.513a2.97,2.97,0,0,1,.063-.513L80-873l2.325-4.1,2.95,1.35a6.855,6.855,0,0,1,.925-.625,5.173,5.173,0,0,1,1-.45L87.7-880h4.6l.5,3.15a8.123,8.123,0,0,1,1.012.463,4.3,4.3,0,0,1,.912.638l2.95-1.35L100-873l-2.7,1.925a3.525,3.525,0,0,1,.063.538q.013.287.012.537t-.012.525a3.481,3.481,0,0,1-.063.525L100-867l-2.325,4.1-2.95-1.35a8.306,8.306,0,0,1-.912.638,4.362,4.362,0,0,1-1.012.463L92.3-860Zm2.3-6.75a3.133,3.133,0,0,0,2.3-.95,3.133,3.133,0,0,0,.95-2.3,3.133,3.133,0,0,0-.95-2.3,3.133,3.133,0,0,0-2.3-.95,3.133,3.133,0,0,0-2.3.95,3.133,3.133,0,0,0-.95,2.3,3.133,3.133,0,0,0,.95,2.3A3.133,3.133,0,0,0,90-866.75Zm0-1.5a1.686,1.686,0,0,1-1.238-.513A1.686,1.686,0,0,1,88.25-870a1.686,1.686,0,0,1,.512-1.238A1.686,1.686,0,0,1,90-871.75a1.686,1.686,0,0,1,1.238.513A1.686,1.686,0,0,1,91.75-870a1.686,1.686,0,0,1-.512,1.237A1.686,1.686,0,0,1,90-868.25ZM90-870Zm-1.1,8.5h2.2l.35-2.8a5.891,5.891,0,0,0,1.563-.625,6.408,6.408,0,0,0,1.337-1.025L97-864.8l1-1.8-2.35-1.725q.1-.425.162-.838a5.581,5.581,0,0,0,.063-.837,6.957,6.957,0,0,0-.05-.838,5.175,5.175,0,0,0-.175-.837L98-873.4l-1-1.8-2.65,1.15a5.571,5.571,0,0,0-1.3-1.088,4.215,4.215,0,0,0-1.6-.562l-.35-2.8H88.9l-.35,2.8a5.293,5.293,0,0,0-1.587.6,5.513,5.513,0,0,0-1.313,1.05L83-875.2l-1,1.8,2.35,1.725q-.1.425-.163.837a5.585,5.585,0,0,0-.062.838,5.584,5.584,0,0,0,.062.837q.063.412.163.838L82-866.6l1,1.8,2.65-1.15a6.409,6.409,0,0,0,1.337,1.025,5.891,5.891,0,0,0,1.563.625Z" transform="translate(-80 880)"/>
</svg>
