<svg id="Component_6_213" data-name="Component 6 – 213" xmlns="http://www.w3.org/2000/svg" width="32" height="32" viewBox="0 0 32 32">
  <circle id="Ellipse_11" data-name="Ellipse 11" cx="16" cy="16" r="16" fill="#fbfbfb"/>
  <path id="share_FILL1_wght400_GRAD0_opsz24" d="M130.5-866a2.025,2.025,0,0,1-1.488-.612,2.025,2.025,0,0,1-.613-1.488,1.92,1.92,0,0,1,.018-.254,1.285,1.285,0,0,1,.053-.236l-4.935-2.87a2.306,2.306,0,0,1-.665.411,2.034,2.034,0,0,1-.77.149,2.025,2.025,0,0,1-1.488-.612A2.025,2.025,0,0,1,120-873a2.025,2.025,0,0,1,.612-1.487,2.025,2.025,0,0,1,1.488-.613,2.034,2.034,0,0,1,.77.149,2.3,2.3,0,0,1,.665.411l4.935-2.87a1.285,1.285,0,0,1-.053-.236,1.92,1.92,0,0,1-.018-.254,2.025,2.025,0,0,1,.613-1.488A2.025,2.025,0,0,1,130.5-880a2.025,2.025,0,0,1,1.487.613,2.025,2.025,0,0,1,.613,1.488,2.025,2.025,0,0,1-.613,1.487,2.025,2.025,0,0,1-1.487.613,2.032,2.032,0,0,1-.77-.149,2.3,2.3,0,0,1-.665-.411l-4.935,2.87a1.286,1.286,0,0,1,.052.236,1.92,1.92,0,0,1,.018.254,1.92,1.92,0,0,1-.018.254,1.283,1.283,0,0,1-.052.236l4.935,2.87a2.3,2.3,0,0,1,.665-.411,2.03,2.03,0,0,1,.77-.149,2.025,2.025,0,0,1,1.487.612,2.025,2.025,0,0,1,.613,1.487,2.025,2.025,0,0,1-.613,1.488A2.025,2.025,0,0,1,130.5-866Z" transform="translate(-111 889)" fill="#9d9d9d"/>
</svg>
