<svg xmlns="http://www.w3.org/2000/svg" width="21.6" height="24" viewBox="0 0 21.6 24">
  <path id="share_FILL1_wght400_GRAD0_opsz24" d="M138-856a3.472,3.472,0,0,1-2.55-1.05,3.472,3.472,0,0,1-1.05-2.55,3.294,3.294,0,0,1,.03-.435,2.205,2.205,0,0,1,.09-.405l-8.46-4.92a3.952,3.952,0,0,1-1.14.705,3.486,3.486,0,0,1-1.32.255,3.472,3.472,0,0,1-2.55-1.05A3.472,3.472,0,0,1,120-868a3.472,3.472,0,0,1,1.05-2.55,3.472,3.472,0,0,1,2.55-1.05,3.486,3.486,0,0,1,1.32.255,3.95,3.95,0,0,1,1.14.705l8.46-4.92a2.2,2.2,0,0,1-.09-.4,3.294,3.294,0,0,1-.03-.435,3.472,3.472,0,0,1,1.05-2.55A3.472,3.472,0,0,1,138-880a3.472,3.472,0,0,1,2.55,1.05,3.472,3.472,0,0,1,1.05,2.55,3.472,3.472,0,0,1-1.05,2.55A3.472,3.472,0,0,1,138-872.8a3.485,3.485,0,0,1-1.32-.255,3.952,3.952,0,0,1-1.14-.7l-8.46,4.92a2.2,2.2,0,0,1,.09.4,3.292,3.292,0,0,1,.03.435,3.291,3.291,0,0,1-.03.435,2.2,2.2,0,0,1-.09.405l8.46,4.92a3.952,3.952,0,0,1,1.14-.7A3.485,3.485,0,0,1,138-863.2a3.472,3.472,0,0,1,2.55,1.05,3.472,3.472,0,0,1,1.05,2.55,3.472,3.472,0,0,1-1.05,2.55A3.472,3.472,0,0,1,138-856Z" transform="translate(-120 880)" fill="#fff"/>
</svg>
