<svg xmlns="http://www.w3.org/2000/svg" xmlns:xlink="http://www.w3.org/1999/xlink" width="48" height="48" viewBox="0 0 48 48">
  <defs>
    <clipPath id="clip-path">
      <rect id="Rectangle_4946" data-name="Rectangle 4946" width="21.719" height="22.625" fill="#185adb"/>
    </clipPath>
  </defs>
  <g id="Group_8060" data-name="Group 8060" transform="translate(-176 -1526)">
    <circle id="Ellipse_158" data-name="Ellipse 158" cx="24" cy="24" r="24" transform="translate(176 1526)" fill="rgba(24,90,219,0.1)"/>
    <g id="Group_8042" data-name="Group 8042" transform="translate(-314.667 -4586.667)">
      <g id="Rectangle_2" data-name="Rectangle 2" transform="translate(500.667 6122.667)" fill="#fff" stroke="#707070" stroke-width="1" opacity="0">
        <rect width="29" height="29" stroke="none"/>
        <rect x="0.5" y="0.5" width="28" height="28" fill="none"/>
      </g>
      <g id="Group_7877" data-name="Group 7877" transform="translate(504.038 6125.657)">
        <g id="Group_7876" data-name="Group 7876" clip-path="url(#clip-path)">
          <path id="Path_19195" data-name="Path 19195" d="M7,3.309c.023.515.048,1.029.068,1.544a1.693,1.693,0,0,1-.854,1.614c-.345.21-.7.405-1.048.609a.9.9,0,0,0-.489,1.056,13.5,13.5,0,0,0,2.7,5.979,25.988,25.988,0,0,0,1.923,2.036.865.865,0,0,0,1.19.12c.33-.188.658-.382.988-.57a1.688,1.688,0,0,1,1.845.027c.912.574,1.821,1.151,2.722,1.742a1.713,1.713,0,0,1-.073,2.957c-1.189.68-2.393,1.335-3.6,1.983a1.649,1.649,0,0,1-1.819-.122A23.945,23.945,0,0,1,.815,8.713,23,23,0,0,1,0,3.992a1.718,1.718,0,0,1,.913-1.7C2.033,1.627,3.142.951,4.254.28A1.718,1.718,0,0,1,6.92,1.671c.037.546.056,1.092.084,1.639H7" transform="translate(0 0)" fill="#185adb"/>
          <path id="Path_19196" data-name="Path 19196" d="M85.473,41.963c-1.586,0-3.171-.005-4.757,0a1.615,1.615,0,0,1-1.349-.622.265.265,0,0,0-.23-.057,3.979,3.979,0,0,1-1.575.146c-.047-.005-.1,0-.139-.021-.078-.053-.18-.113-.2-.19-.014-.049.087-.154.158-.2a10.474,10.474,0,0,0,.926-.567,1.975,1.975,0,0,0,.771-1.658c-.017-1.387-.008-2.774,0-4.162a1.529,1.529,0,0,1,1.269-1.6,2.054,2.054,0,0,1,.379-.024q4.745,0,9.49,0a1.527,1.527,0,0,1,1.654,1.661q0,2.818,0,5.636a1.524,1.524,0,0,1-1.658,1.655q-2.367,0-4.733,0m-1.556-4.206a5.249,5.249,0,0,0,.1.583A1.643,1.643,0,0,0,85.5,39.574a1.606,1.606,0,0,0,1.528-1.112,1.859,1.859,0,0,0-.307-1.88,1.488,1.488,0,0,0-2.276-.1,1.921,1.921,0,0,0-.529,1.271m5.613.776a1.021,1.021,0,0,0-.953-1.03.46.46,0,0,1-.434-.372.43.43,0,0,1,.194-.476.458.458,0,0,1,.572.042c.189.145.351.141.454-.009.13-.188.035-.327-.113-.449a1.036,1.036,0,1,0-.724,1.835.455.455,0,0,1,.428.407.461.461,0,0,1-.838.316c-.122-.164-.257-.24-.442-.118-.152.1-.148.286,0,.481a1.041,1.041,0,0,0,1.146.365,1.031,1.031,0,0,0,.713-.991M82.657,36l-.034,0-.032,0a2.5,2.5,0,0,0-.257.039,1.034,1.034,0,0,0,.154,2.033.484.484,0,0,1,.463.4.459.459,0,0,1-.292.493.442.442,0,0,1-.561-.181c-.114-.158-.251-.221-.426-.112-.151.094-.158.273-.029.46a1.036,1.036,0,1,0,.936-1.628.463.463,0,0,1-.446-.388.428.428,0,0,1,.208-.469.45.45,0,0,1,.57.06.272.272,0,0,0,.436-.014.287.287,0,0,0,.072-.207c-.006-.065-.041-.132-.155-.222a1.368,1.368,0,0,0-.607-.26" transform="translate(-70.146 -29.986)" fill="#49a647"/>
          <path id="Path_19197" data-name="Path 19197" d="M158.837,73.135a1.316,1.316,0,0,1-.041.349,1.059,1.059,0,0,1-1.028.859,1.107,1.107,0,0,1-.977-.981,1.333,1.333,0,0,1,.24-1.036.931.931,0,0,1,1.579.049,1.587,1.587,0,0,1,.228.76" transform="translate(-142.413 -65.326)" fill="#49a647"/>
        </g>
      </g>
    </g>
  </g>
</svg>
