<svg xmlns="http://www.w3.org/2000/svg" width="60" height="60" viewBox="0 0 60 60">
  <g id="Group_9244" data-name="Group 9244" transform="translate(-129.614 -159)">
    <circle id="Ellipse_151" data-name="Ellipse 151" cx="30" cy="30" r="30" transform="translate(129.614 159)" fill="#333d4e"/>
    <g id="download-speed" transform="translate(143.604 153.993)">
      <path id="Path_19574" data-name="Path 19574" d="M32.019,37.235A15.956,15.956,0,0,0,27.4,26a.8.8,0,0,0-.073-.086.783.783,0,0,0-.085-.073,15.98,15.98,0,0,0-22.47,0,.806.806,0,0,0-.085.073A.786.786,0,0,0,4.616,26a15.995,15.995,0,0,0,.072,22.554h0a.787.787,0,0,0,1.113,0c.013-.013.025-.027.037-.041L8.268,46.09a.787.787,0,0,0-1.113-1.114L5.261,46.87A14.313,14.313,0,0,1,1.6,38.023H4.274a.787.787,0,1,0,0-1.575H1.6a14.377,14.377,0,0,1,3.67-8.842l1.888,1.888A.787.787,0,0,0,8.268,28.38L6.38,26.492a14.377,14.377,0,0,1,8.842-3.67V25.5a.787.787,0,0,0,1.575,0V22.822a14.377,14.377,0,0,1,8.842,3.67L23.751,28.38a.787.787,0,0,0,1.113,1.114l1.888-1.888a14.377,14.377,0,0,1,3.67,8.842H27.745a.787.787,0,1,0,0,1.575h2.678a14.313,14.313,0,0,1-3.665,8.847l-1.893-1.894a.787.787,0,0,0-1.113,1.114l2.465,2.465a.787.787,0,0,0,1.114,0A15.9,15.9,0,0,0,32.019,37.235Z" transform="translate(0 0)" fill="#e4e6e9"/>
      <path id="Path_19575" data-name="Path 19575" d="M131.142,87.234a.787.787,0,0,0-1.024.438l-2.275,5.679a2.993,2.993,0,0,0-.318-.019,2.919,2.919,0,0,0-2.613,1.6,3.13,3.13,0,0,0,.36,3.3,1.281,1.281,0,0,0,.28.28,3.36,3.36,0,0,0,1.972.679,2.919,2.919,0,0,0,2.613-1.6,3.129,3.129,0,0,0-.36-3.3,1.282,1.282,0,0,0-.28-.281c-.057-.042-.116-.08-.175-.118l2.258-5.635A.787.787,0,0,0,131.142,87.234Zm-2.408,9.643a1.352,1.352,0,0,1-1.209.742,1.753,1.753,0,0,1-1.007-.349,1.555,1.555,0,0,1-.2-1.621,1.351,1.351,0,0,1,1.209-.742,1.532,1.532,0,0,1,.491.083l.016.007.052.018a2.09,2.09,0,0,1,.448.241A1.555,1.555,0,0,1,128.734,96.877Z" transform="translate(-111.516 -59.028)" fill="#e4e6e9"/>
    </g>
  </g>
</svg>
