<svg xmlns="http://www.w3.org/2000/svg" width="90" height="90" viewBox="0 0 90 90">
  <g id="Group_8048" data-name="Group 8048" transform="translate(-482.551 -177.551)">
    <rect id="Rectangle_14" data-name="Rectangle 14" width="90" height="90" transform="translate(482.551 177.551)" fill="#fff" opacity="0"/>
    <g id="stop" transform="translate(483.362 178.362)">
      <path id="Path_60" data-name="Path 60" d="M410.131,224.661h-1.858v3.852h1.858a1.927,1.927,0,1,0,0-3.851Z" transform="translate(-337.799 -185.881)" fill="#185ADB"/>
      <path id="Path_61" data-name="Path 61" d="M272.618,224.661a5.41,5.41,0,1,0,5.41,5.41A5.416,5.416,0,0,0,272.618,224.661Z" transform="translate(-221.084 -185.881)" fill="#185ADB"/>
      <path id="Path_62" data-name="Path 62" d="M62.493,0H25.886L0,25.886V62.493L25.886,88.379H62.493L88.379,62.493V25.886ZM23.94,49.317a7.173,7.173,0,0,1-7.317,5.631,10.087,10.087,0,0,1-7.494-3.222l3.837-3.477a4.972,4.972,0,0,0,3.656,1.521,2.127,2.127,0,0,0,2.215-1.337c.041-.238.151-.871-1.241-1.394a17.618,17.618,0,0,0-2.212-.66,9.367,9.367,0,0,1-3.177-1.252A6.227,6.227,0,0,1,9.467,39.8a6.567,6.567,0,0,1,4.364-5.866c4.321-1.613,7.8.968,9.872,2.51L20.615,40.6c-3.055-2.269-3.988-2.184-4.974-1.816a1.418,1.418,0,0,0-1,1.124,1.086,1.086,0,0,0,.385.874,4.532,4.532,0,0,0,1.586.564,22.59,22.59,0,0,1,2.8.842c3.283,1.234,5.058,4.031,4.522,7.125ZM39.962,38.78H35.527v16H30.349v-16h-4.4V33.6H39.963V38.78Zm11.571,16A10.588,10.588,0,1,1,62.122,44.189,10.6,10.6,0,0,1,51.534,54.778Zm20.8-6.968H70.467v6.968H65.288V33.6h7.044a7.1,7.1,0,1,1,0,14.208Z" transform="translate(0)" fill="#185ADB"/>
    </g>
  </g>
</svg>
