<svg xmlns="http://www.w3.org/2000/svg" width="24" height="24" viewBox="0 0 24 24">
  <g id="Group_6397" data-name="Group 6397" transform="translate(-1730 -142)">
    <rect id="Rectangle_4209" data-name="Rectangle 4209" width="24" height="24" transform="translate(1730 142)" fill="#fff" opacity="0"/>
    <path id="history_FILL1_wght400_GRAD0_opsz48" d="M128.925-822a8.548,8.548,0,0,1-6.325-2.638,8.763,8.763,0,0,1-2.6-6.387h1.5a7.339,7.339,0,0,0,2.15,5.325,7.09,7.09,0,0,0,5.275,2.2,7.271,7.271,0,0,0,5.375-2.225,7.4,7.4,0,0,0,2.2-5.4,6.982,6.982,0,0,0-2.225-5.238,7.447,7.447,0,0,0-5.35-2.137,6.8,6.8,0,0,0-3.187.775,8.693,8.693,0,0,0-2.588,2.05h2.625v1.5H120.55v-5.2h1.5v2.65a9.514,9.514,0,0,1,3.087-2.4,8.5,8.5,0,0,1,3.787-.875,8.931,8.931,0,0,1,3.525.7,9.237,9.237,0,0,1,2.888,1.912,8.978,8.978,0,0,1,1.95,2.837,8.619,8.619,0,0,1,.713,3.5,8.8,8.8,0,0,1-.713,3.525,9.048,9.048,0,0,1-1.95,2.875,9.3,9.3,0,0,1-2.888,1.938A8.8,8.8,0,0,1,128.925-822Zm3.2-4.925-3.85-3.8v-5.35h1.5v4.725L133.2-828Z" transform="translate(1613 985)" fill="#fcfcfc"/>
  </g>
</svg>
