<svg xmlns="http://www.w3.org/2000/svg" width="24" height="24" viewBox="0 0 24 24">
  <g id="Group_7682" data-name="Group 7682" transform="translate(24275 7671)">
    <rect id="Rectangle_4827" data-name="Rectangle 4827" width="24" height="24" transform="translate(-24275 -7671)" fill="#fff" opacity="0"/>
    <path id="dynamic_feed_FILL0_wght400_GRAD0_opsz24" d="M81.752-824.234a1.687,1.687,0,0,1-1.237-.515A1.687,1.687,0,0,1,80-825.986v-6.131h1.752v6.131h7.883v1.752Zm3.5-3.5a1.687,1.687,0,0,1-1.237-.515,1.687,1.687,0,0,1-.515-1.237v-6.131h1.752v6.131h7.883v1.752Zm3.5-3.5a1.687,1.687,0,0,1-1.237-.515,1.687,1.687,0,0,1-.515-1.237v-5.255a1.687,1.687,0,0,1,.515-1.237A1.687,1.687,0,0,1,88.759-840h7.007a1.687,1.687,0,0,1,1.237.515,1.687,1.687,0,0,1,.515,1.237v5.255A1.687,1.687,0,0,1,97-831.755a1.687,1.687,0,0,1-1.237.515Zm0-1.752h7.007v-3.5H88.759Z" transform="translate(-24351.813 -6826.883)" fill="#fff"/>
  </g>
</svg>
