<svg xmlns="http://www.w3.org/2000/svg" xmlns:xlink="http://www.w3.org/1999/xlink" width="90" height="90" viewBox="0 0 90 90">
  <defs>
    <clipPath id="clip-path">
      <rect id="Rectangle_4947" data-name="Rectangle 4947" width="32.263" height="41.284" fill="#49a647"/>
    </clipPath>
  </defs>
  <g id="Group_7982" data-name="Group 7982" transform="translate(-1107.717 -5287.717)">
    <g id="Group_7883" data-name="Group 7883" transform="translate(1107.717 5287.717)">
      <rect id="Rectangle_18" data-name="Rectangle 18" width="90" height="90" transform="translate(0 0)" fill="#fff" opacity="0"/>
      <g id="traffic-light" transform="translate(3.716 10.038)">
        <path id="Path_84" data-name="Path 84" d="M17.837,37.054l.909.227V23.47l-.909.227A3.739,3.739,0,0,0,15,27.332v6.09a3.74,3.74,0,0,0,2.837,3.634Z" transform="translate(-15 0.841)" fill="#185adb"/>
        <path id="Path_85" data-name="Path 85" d="M17.837,22.054l.909.227V8.469l-.909.227A3.739,3.739,0,0,0,15,12.331v6.09a3.743,3.743,0,0,0,2.837,3.635Z" transform="translate(-15 -2.889)" fill="#185adb"/>
        <path id="Path_86" data-name="Path 86" d="M18.746,38.47l-.909.227A3.739,3.739,0,0,0,15,42.331v6.09a3.74,3.74,0,0,0,2.837,3.634l.909.227Z" transform="translate(-15 4.571)" fill="#185adb"/>
        <path id="Path_87" data-name="Path 87" d="M46.909,23.7,46,23.469V37.28l.909-.227a3.739,3.739,0,0,0,2.837-3.634V27.33A3.743,3.743,0,0,0,46.909,23.7Z" transform="translate(-7.292 0.841)" fill="#185adb"/>
        <path id="Path_88" data-name="Path 88" d="M46.909,8.7,46,8.469V22.282l.909-.227a3.739,3.739,0,0,0,2.837-3.635V12.33A3.743,3.743,0,0,0,46.909,8.7Z" transform="translate(-7.292 -2.889)" fill="#185adb"/>
        <path id="Path_89" data-name="Path 89" d="M28,55v4.995a1.248,1.248,0,0,0,1.249,1.249h7.492a1.248,1.248,0,0,0,1.249-1.249V55Z" transform="translate(-11.768 8.681)" fill="#185adb"/>
        <path id="Path_90" data-name="Path 90" d="M46.909,38.7,46,38.469V52.28l.909-.227a3.739,3.739,0,0,0,2.837-3.634V42.33A3.74,3.74,0,0,0,46.909,38.7Z" transform="translate(-7.292 4.571)" fill="#185adb"/>
        <path id="Path_91" data-name="Path 91" d="M46.47,4H23.995A5,5,0,0,0,19,8.995V61.438a5,5,0,0,0,4.995,4.995H46.47a5,5,0,0,0,4.995-4.995V8.995A5,5,0,0,0,46.47,4ZM35.232,61.438a7.492,7.492,0,1,1,7.492-7.492A7.5,7.5,0,0,1,35.232,61.438Zm0-18.73a7.492,7.492,0,1,1,7.492-7.492A7.5,7.5,0,0,1,35.232,42.708Zm0-18.73a7.492,7.492,0,1,1,7.492-7.492A7.5,7.5,0,0,1,35.232,23.978Z" transform="translate(-14.005 -4)" fill="#185adb"/>
      </g>
    </g>
    <g id="Group_7885" data-name="Group 7885" transform="translate(1161.738 5322.42)">
      <g id="Group_7884" data-name="Group 7884" clip-path="url(#clip-path)">
        <path id="Path_19198" data-name="Path 19198" d="M97.548,187.218a16.759,16.759,0,0,1-2.414-.58,12.554,12.554,0,0,1-2.584-1.365c-1.649-1.156-3.235-2.4-4.84-3.621a2.232,2.232,0,0,1,.638-3.9,2.383,2.383,0,0,1,1.838.16l2.92,1.419c-.072-.2-.118-.352-.176-.494q-2.476-6.1-4.959-12.189a2.221,2.221,0,0,1-.011-2.015,1.932,1.932,0,0,1,1.806-1.083,2.034,2.034,0,0,1,1.909,1.322c.475,1.095.91,2.207,1.36,3.313q1.214,2.982,2.426,5.964c.051.124.076.3.17.356a1.177,1.177,0,0,0,.623.231.478.478,0,0,0,.425-.547,1.445,1.445,0,0,0-.127-.461c-.543-1.343-1.08-2.689-1.644-4.023a.417.417,0,0,1,.177-.6,2.058,2.058,0,0,1,3.1.9c.363.851.7,1.713,1.051,2.57.035.087.065.177.106.261a.59.59,0,1,0,1.095-.44c-.154-.429-.341-.846-.512-1.269-.4-.982-.783-1.97-1.206-2.941a.438.438,0,0,1,.182-.628,2.044,2.044,0,0,1,3.072.876c.374.861.711,1.738,1.066,2.607a2.463,2.463,0,0,0,.167.365.552.552,0,0,0,.7.236.524.524,0,0,0,.352-.644,2.182,2.182,0,0,0-.143-.417c-.533-1.318-1.057-2.64-1.612-3.949a.43.43,0,0,1,.191-.621,2.068,2.068,0,0,1,3.123,1.019c.474,1.11.913,2.235,1.368,3.353.647,1.59,1.3,3.178,1.942,4.771a7.692,7.692,0,0,1-4.187,10.137c-1.516.64-3.083,1.162-4.636,1.711a7.205,7.205,0,0,1-1.141.212Z" transform="translate(-77.462 -145.934)" fill="#49a647"/>
        <path id="Path_19199" data-name="Path 19199" d="M29.544,31.138c1.133,0,2.221-.005,3.308.009a.417.417,0,0,1,.293.195c.163.292.293.6.437.906A1.809,1.809,0,0,0,35.3,33.364q2.3.02,4.6,0a1.816,1.816,0,0,0,1.751-1.135.4.4,0,0,0,.034-.073c.194-.864.716-1.139,1.592-1.037a21.136,21.136,0,0,0,2.409.019v18.2c-1.641.168-1.641.168-2.466.669-.054-.122-.109-.237-.158-.355-.458-1.117-.9-2.242-1.376-3.35a3.222,3.222,0,1,0-5.991,2.369c.836,2.107,1.7,4.2,2.558,6.3.5,1.227,1,2.454,1.467,3.6a11.168,11.168,0,0,0-2.049-.247,6.7,6.7,0,0,0-1.623.515,2.339,2.339,0,0,1-.668.189c-1.934.015-3.868.009-5.835.009Z" transform="translate(-26.362 -27.75)" fill="#49a647"/>
        <path id="Path_19200" data-name="Path 19200" d="M22.5,19.942l-1.959.752v-.426q0-8.243,0-16.485c0-1.164-.417-1.583-1.573-1.583-1.1,0-2.2.011-3.306-.005a.827.827,0,0,0-.875.557c-.174.421-.382.828-.573,1.243a.706.706,0,0,1-.7.444q-2.258,0-4.515,0a.74.74,0,0,1-.729-.469q-.3-.658-.6-1.318a.7.7,0,0,0-.7-.451c-1.25,0-2.5-.012-3.749.006A1.22,1.22,0,0,0,1.963,3.454c-.006.121,0,.242,0,.363q0,13.543,0,27.086c0,1.163.417,1.582,1.572,1.582H8.372l-.258,2.193h-.27c-1.492,0-2.983,0-4.475,0A3.258,3.258,0,0,1,0,31.323Q0,17.115,0,2.907A2.806,2.806,0,0,1,2.9,0Q11.026,0,19.149,0A3.267,3.267,0,0,1,22.5,3.3c.013,5.5.005,10.99,0,16.485,0,.079-.008.157-.008.156" transform="translate(0 0)" fill="#49a647"/>
      </g>
    </g>
  </g>
</svg>
