<svg xmlns="http://www.w3.org/2000/svg" width="60" height="60" viewBox="0 0 60 60">
  <g id="Group_9552" data-name="Group 9552" transform="translate(-129.614 -159)">
    <circle id="Ellipse_151" data-name="Ellipse 151" cx="30" cy="30" r="30" transform="translate(129.614 159)" fill="#333d4e"/>
    <path id="directions_car_FILL0_wght200_GRAD0_opsz24" d="M162.444-696.169v2.979a.961.961,0,0,1-.286.708.961.961,0,0,1-.707.286h-.458a.961.961,0,0,1-.707-.286.961.961,0,0,1-.285-.708v-14.589l3.941-11.228a1.282,1.282,0,0,1,.56-.733,1.7,1.7,0,0,1,.922-.26H186.5a1.341,1.341,0,0,1,.819.273,1.4,1.4,0,0,1,.51.72l3.941,11.228v14.589a.961.961,0,0,1-.285.708.961.961,0,0,1-.707.286h-.458a.961.961,0,0,1-.707-.286.961.961,0,0,1-.285-.708v-2.979Zm.367-13.6h26.152l-2.925-8.249h-20.3Zm-.825,1.986v0Zm4.821,7.027a2.116,2.116,0,0,0,1.566-.648,2.16,2.16,0,0,0,.64-1.575,2.114,2.114,0,0,0-.649-1.566,2.159,2.159,0,0,0-1.575-.64,2.116,2.116,0,0,0-1.566.649,2.16,2.16,0,0,0-.639,1.575,2.117,2.117,0,0,0,.648,1.566A2.161,2.161,0,0,0,166.807-700.752Zm18.179,0a2.117,2.117,0,0,0,1.566-.648,2.161,2.161,0,0,0,.639-1.575,2.115,2.115,0,0,0-.648-1.566,2.16,2.16,0,0,0-1.575-.64,2.115,2.115,0,0,0-1.566.649,2.159,2.159,0,0,0-.64,1.575,2.116,2.116,0,0,0,.649,1.566A2.16,2.16,0,0,0,184.986-700.752Zm-23,2.6h27.8v-9.624h-27.8Z" transform="translate(-16.274 895.099)" fill="#e4e6e9"/>
  </g>
</svg>
