<svg xmlns="http://www.w3.org/2000/svg" width="20" height="20" viewBox="0 0 18 13.091">
  <path id="cloud_upload_FILL1_wght400_GRAD0_opsz24" d="M48.182-786.909H44.5a4.387,4.387,0,0,1-3.181-1.289A4.235,4.235,0,0,1,40-791.348a4.534,4.534,0,0,1,.961-2.843,4.253,4.253,0,0,1,2.516-1.6,5.553,5.553,0,0,1,2.045-3.048A5.6,5.6,0,0,1,49-800a5.526,5.526,0,0,1,4.06,1.667,5.526,5.526,0,0,1,1.667,4.06,3.571,3.571,0,0,1,2.342,1.217A3.606,3.606,0,0,1,58-790.591a3.551,3.551,0,0,1-1.074,2.608,3.55,3.55,0,0,1-2.608,1.074h-4.5v-5.85l1.309,1.268,1.145-1.145L49-795.909l-3.273,3.273,1.145,1.145,1.309-1.268Z" transform="translate(-40 800)" fill="#038aff"/>
</svg>
