<svg xmlns="http://www.w3.org/2000/svg" width="24" height="24" viewBox="0 0 24 24">
  <g id="Group_8089" data-name="Group 8089" transform="translate(24302.25 7671)">
    <rect id="Rectangle_4826" data-name="Rectangle 4826" width="24" height="24" transform="translate(-24302.25 -7671)" fill="#263f92" opacity="0"/>
    <path id="schedule_FILL0_wght400_GRAD0_opsz24" d="M91.97-866.77l1.26-1.26-3.33-3.33v-4.14H88.1v4.86ZM89-862a8.764,8.764,0,0,1-3.51-.709,9.089,9.089,0,0,1-2.858-1.924,9.09,9.09,0,0,1-1.924-2.858A8.764,8.764,0,0,1,80-871a8.764,8.764,0,0,1,.709-3.51,9.089,9.089,0,0,1,1.924-2.857,9.09,9.09,0,0,1,2.858-1.924A8.764,8.764,0,0,1,89-880a8.764,8.764,0,0,1,3.51.709,9.089,9.089,0,0,1,2.857,1.924,9.089,9.089,0,0,1,1.924,2.857A8.764,8.764,0,0,1,98-871a8.764,8.764,0,0,1-.709,3.51,9.09,9.09,0,0,1-1.924,2.858,9.089,9.089,0,0,1-2.857,1.924A8.764,8.764,0,0,1,89-862ZM89-871Zm0,7.2a6.941,6.941,0,0,0,5.1-2.1,6.941,6.941,0,0,0,2.1-5.1,6.941,6.941,0,0,0-2.1-5.1,6.941,6.941,0,0,0-5.1-2.1,6.941,6.941,0,0,0-5.1,2.1,6.941,6.941,0,0,0-2.1,5.1,6.941,6.941,0,0,0,2.1,5.1A6.941,6.941,0,0,0,89-863.8Z" transform="translate(-24379.25 -6788)" fill="#9d9d9d"/>
  </g>
</svg>
