<svg xmlns="http://www.w3.org/2000/svg" xmlns:xlink="http://www.w3.org/1999/xlink" width="73" height="73" viewBox="0 0 73 73">
  <defs>
    <clipPath id="clip-path">
      <circle id="portrait-happy-male-with-broad-smile" cx="36.5" cy="36.5" r="36.5" transform="translate(-13402 -6507)" fill="#fcfcfc"/>
    </clipPath>
  </defs>
  <g id="Group_6816" data-name="Group 6816" transform="translate(-600 -193)">
    <circle id="portrait-happy-male-with-broad-smile-2" data-name="portrait-happy-male-with-broad-smile" cx="36.5" cy="36.5" r="36.5" transform="translate(600 193)" fill="#aeaeae"/>
    <g id="Mask_Group_2" data-name="Mask Group 2" transform="translate(14002 6700)" clip-path="url(#clip-path)">
      <path id="person_FILL1_wght300_GRAD0_opsz48" d="M207-734.422a11.61,11.61,0,0,1-8.57-3.372,11.61,11.61,0,0,1-3.372-8.57,11.6,11.6,0,0,1,3.372-8.587,11.642,11.642,0,0,1,8.57-3.355,11.642,11.642,0,0,1,8.57,3.355,11.6,11.6,0,0,1,3.372,8.587,11.61,11.61,0,0,1-3.372,8.57A11.61,11.61,0,0,1,207-734.422Zm-27,27.471v-6.833a8.471,8.471,0,0,1,1.537-5.054,10.1,10.1,0,0,1,3.995-3.309,64.569,64.569,0,0,1,10.959-3.808A44.414,44.414,0,0,1,207-727.235a43.188,43.188,0,0,1,10.482,1.308,69.96,69.96,0,0,1,10.931,3.78,10.016,10.016,0,0,1,4.05,3.309A8.472,8.472,0,0,1,234-713.784v6.833l-27.969,12.39Z" transform="translate(-13572.501 -5734.872)" fill="#5f5f5f"/>
    </g>
  </g>
</svg>
