<svg xmlns="http://www.w3.org/2000/svg" width="90.5" height="88" viewBox="0 0 90.5 88">
  <g id="Group_8039" data-name="Group 8039" transform="translate(-685.928 -171.928)">
    <rect id="Rectangle_1" data-name="Rectangle 1" width="88" height="88" transform="translate(685.928 171.928)" fill="rgba(255,255,255,0)"/>
    <g id="Group_4" data-name="Group 4" transform="translate(686.058 183.806)">
      <path id="Path_17" data-name="Path 17" d="M12.659,27.5a1.149,1.149,0,0,1-1.883.884L4.495,23.182H1.149A1.149,1.149,0,0,1,0,22.033V17.455a1.149,1.149,0,0,1,1.149-1.149H4.5L10.777,11.1a1.15,1.15,0,0,1,1.883.885V27.5Zm4.416-1.8c-.028,0-.055,0-.083,0a1.148,1.148,0,0,1-.812-.336l-.154-.154a1.148,1.148,0,0,1-.111-1.5,6.682,6.682,0,0,0-.177-8.188A1.148,1.148,0,0,1,15.818,14l.153-.154a1.124,1.124,0,0,1,.87-.335,1.151,1.151,0,0,1,.833.42,9.2,9.2,0,0,1,.24,11.319A1.15,1.15,0,0,1,17.075,25.707Zm4.751,3.551a1.15,1.15,0,0,1-.83.407h-.048a1.148,1.148,0,0,1-.813-.336l-.151-.151a1.149,1.149,0,0,1-.067-1.552,12.246,12.246,0,0,0-.2-16,1.149,1.149,0,0,1,.046-1.573l.151-.151a1.119,1.119,0,0,1,.847-.338,1.149,1.149,0,0,1,.826.385,14.754,14.754,0,0,1,.242,19.308Z" transform="translate(62.937 -9.565)" fill="#49a647"/>
      <path id="Union_3" data-name="Union 3" d="M63.115,33.709a9.324,9.324,0,1,1,9.324,9.324A9.324,9.324,0,0,1,63.115,33.709Zm5.021,0a4.3,4.3,0,1,0,4.3-4.3A4.3,4.3,0,0,0,68.136,33.709Zm-56.66,0A9.324,9.324,0,1,1,20.8,43.033,9.324,9.324,0,0,1,11.475,33.709Zm5.021,0a4.3,4.3,0,1,0,4.3-4.3A4.3,4.3,0,0,0,16.5,33.709Zm67.213,2.152a11.475,11.475,0,1,0-22.54,0H32.07a11.476,11.476,0,1,0-22.54,0H7.889A7.9,7.9,0,0,1,0,27.972V20.082a6.462,6.462,0,0,1,6.455-6.455h6.138L21.7,2.961A7.851,7.851,0,0,1,27.86,0h21a7.909,7.909,0,0,1,5.013,1.8l14.257,11.83,16.747,3.055a6.418,6.418,0,0,1,5.487,6.382v6.342a6.462,6.462,0,0,1-6.455,6.455ZM37.3,19.365a2.152,2.152,0,0,0,2.152,2.152h2.869a2.152,2.152,0,1,0,0-4.3H39.447A2.152,2.152,0,0,0,37.3,19.365ZM36.578,5.917v5.563a2.152,2.152,0,0,0,2.147,2.152l20.532.048a1.076,1.076,0,0,0,.669-1.921L50.381,4.228a2.152,2.152,0,0,0-1.333-.462H38.73A2.152,2.152,0,0,0,36.578,5.917Zm-11.189-1.4-6.261,7.334a1.076,1.076,0,0,0,.818,1.775h9.459a2.152,2.152,0,0,0,2.152-2.152V5.917a2.152,2.152,0,0,0-2.152-2.152H27.024A2.152,2.152,0,0,0,25.389,4.519Z" transform="translate(0 23.27)" fill="#185adb"/>
      <path id="Path_21" data-name="Path 21" d="M12.644,27.5a1.149,1.149,0,0,0,1.883.884l6.282-5.205h3.346A1.149,1.149,0,0,0,25.3,22.033V17.455a1.149,1.149,0,0,0-1.149-1.149H20.808L14.526,11.1a1.15,1.15,0,0,0-1.883.885V27.5Zm-4.416-1.8c.028,0,.055,0,.083,0a1.148,1.148,0,0,0,.812-.336l.154-.154a1.148,1.148,0,0,0,.111-1.5,6.682,6.682,0,0,1,.177-8.188A1.148,1.148,0,0,0,9.485,14l-.153-.154a1.124,1.124,0,0,0-.87-.335,1.151,1.151,0,0,0-.833.42,9.2,9.2,0,0,0-.24,11.319A1.15,1.15,0,0,0,8.228,25.707ZM3.477,29.258a1.15,1.15,0,0,0,.83.407h.048a1.148,1.148,0,0,0,.813-.336l.151-.151a1.149,1.149,0,0,0,.067-1.552,12.246,12.246,0,0,1,.2-16,1.149,1.149,0,0,0-.046-1.573L5.392,9.9a1.119,1.119,0,0,0-.847-.338,1.149,1.149,0,0,0-.826.385,14.754,14.754,0,0,0-.242,19.308Z" transform="translate(0 -9.565)" fill="#49a647"/>
    </g>
  </g>
</svg>
