<svg xmlns="http://www.w3.org/2000/svg" width="20" height="20" viewBox="0 0 20 20">
  <g id="Group_7881" data-name="Group 7881" transform="translate(-2078 -12273)">
    <rect id="Rectangle_4819" data-name="Rectangle 4819" width="20" height="20" transform="translate(2078 12273)" fill="#fff" opacity="0"/>
    <path id="visibility_FILL1_wght300_GRAD0_opsz24" d="M70.042-771a3.19,3.19,0,0,0,2.346-.967,3.2,3.2,0,0,0,.965-2.348,3.19,3.19,0,0,0-.967-2.346,3.2,3.2,0,0,0-2.348-.965,3.19,3.19,0,0,0-2.346.967,3.2,3.2,0,0,0-.965,2.348,3.19,3.19,0,0,0,.967,2.346A3.2,3.2,0,0,0,70.042-771Zm0-1.119a2.116,2.116,0,0,1-1.554-.64,2.115,2.115,0,0,1-.64-1.554,2.116,2.116,0,0,1,.64-1.554,2.116,2.116,0,0,1,1.554-.64,2.116,2.116,0,0,1,1.554.64,2.116,2.116,0,0,1,.64,1.554,2.115,2.115,0,0,1-.64,1.554A2.116,2.116,0,0,1,70.04-772.118Zm0,3.494a8.97,8.97,0,0,1-5.107-1.546,9.13,9.13,0,0,1-3.394-4.141,9.133,9.133,0,0,1,3.393-4.141A8.965,8.965,0,0,1,70.039-780a8.97,8.97,0,0,1,5.107,1.546,9.13,9.13,0,0,1,3.394,4.141,9.132,9.132,0,0,1-3.393,4.141A8.965,8.965,0,0,1,70.041-768.624Z" transform="translate(2017.96 13057.312)" fill="#038AFF"/>
  </g>
</svg>
