<svg xmlns="http://www.w3.org/2000/svg" width="18" height="18" viewBox="0 0 18 18">
  <path id="error_FILL1_wght400_GRAD0_opsz48" d="M89-866.5a.719.719,0,0,0,.529-.213.718.718,0,0,0,.214-.529.719.719,0,0,0-.213-.529.717.717,0,0,0-.529-.214.72.72,0,0,0-.529.213.717.717,0,0,0-.214.529.72.72,0,0,0,.213.529A.717.717,0,0,0,89-866.5Zm-.607-3.443h1.35v-5.692h-1.35ZM89.006-862a8.713,8.713,0,0,1-3.5-.709,9.146,9.146,0,0,1-2.863-1.935,9.141,9.141,0,0,1-1.935-2.865,8.729,8.729,0,0,1-.709-3.5,8.728,8.728,0,0,1,.709-3.5,9.005,9.005,0,0,1,1.935-2.854,9.237,9.237,0,0,1,2.865-1.924,8.728,8.728,0,0,1,3.5-.709,8.728,8.728,0,0,1,3.5.709,9.1,9.1,0,0,1,2.854,1.924,9.089,9.089,0,0,1,1.924,2.858,8.748,8.748,0,0,1,.709,3.5,8.711,8.711,0,0,1-.709,3.5,9.191,9.191,0,0,1-1.924,2.859,9.088,9.088,0,0,1-2.857,1.935A8.706,8.706,0,0,1,89.006-862Z" transform="translate(-80 880)" fill="#f1f1f1"/>
</svg>
