<svg xmlns="http://www.w3.org/2000/svg" width="60" height="60" viewBox="0 0 60 60">
  <g id="Group_9993" data-name="Group 9993" transform="translate(-868 -497)">
    <circle id="Ellipse_151" data-name="Ellipse 151" cx="30" cy="30" r="30" transform="translate(868 497)" fill="#333d4e"/>
    <g id="yawn_1_" data-name="yawn (1)" transform="translate(882 511)">
      <g id="Group_9246" data-name="Group 9246">
        <g id="Group_9245" data-name="Group 9245">
          <path id="Path_19570" data-name="Path 19570" d="M227.788,81.459l-2.783-1.391a.7.7,0,0,0-.623,1.245l2.783,1.391a.7.7,0,0,0,.623-1.245Z" transform="translate(-204.52 -73.039)" fill="#e4e6e9"/>
          <path id="Path_19571" data-name="Path 19571" d="M96.69,82.784a.7.7,0,0,0,.31-.073l2.783-1.391a.7.7,0,0,0-.623-1.245l-2.783,1.391a.7.7,0,0,0,.312,1.318Z" transform="translate(-87.646 -73.045)" fill="#e4e6e9"/>
          <path id="Path_19572" data-name="Path 19572" d="M16,0A16,16,0,1,0,32,16,16.018,16.018,0,0,0,16,0Zm0,30.609A14.609,14.609,0,1,1,30.609,16,14.625,14.625,0,0,1,16,30.609Z" fill="#e4e6e9"/>
          <path id="Path_19573" data-name="Path 19573" d="M103.652,128a7.652,7.652,0,0,0,0,15.3,7.527,7.527,0,0,0,.794-.042,7.631,7.631,0,0,0,4.814-2.413l0,0h0v0A7.646,7.646,0,0,0,103.652,128Zm4.184,12.3c-.065.058-.133.113-.2.169-.091.076-.184.15-.279.221-.072.053-.145.1-.218.152-.1.065-.2.129-.3.188q-.115.068-.232.131c-.1.056-.207.107-.314.157-.08.038-.159.074-.241.109-.11.046-.222.087-.334.127-.081.029-.161.058-.243.083-.119.036-.239.066-.36.1-.079.019-.157.041-.237.057-.134.027-.27.046-.406.064-.068.009-.136.022-.205.029a5.911,5.911,0,0,1-1.242,0c-.067-.007-.134-.019-.2-.029-.138-.018-.275-.038-.41-.065-.078-.016-.154-.037-.232-.056-.122-.03-.245-.06-.365-.1-.08-.024-.159-.054-.237-.081-.115-.04-.23-.082-.342-.129-.078-.033-.154-.068-.231-.1q-.166-.077-.327-.163c-.074-.04-.146-.081-.218-.123-.106-.063-.21-.129-.312-.2-.068-.046-.136-.093-.2-.141-.1-.074-.2-.154-.295-.234-.063-.052-.126-.1-.186-.158-.024-.022-.047-.047-.07-.069a4.873,4.873,0,0,1,8.505,0C107.882,140.254,107.86,140.278,107.837,140.3Zm1.011-1.169a6.243,6.243,0,0,0-10.392,0,6.261,6.261,0,1,1,10.392,0Z" transform="translate(-87.652 -116.87)" fill="#e4e6e9"/>
        </g>
      </g>
    </g>
  </g>
</svg>
